<mxfile host="65bd71144e">
    <diagram id="HIP3nbAZw_EuaXWnEj3U" name="Page-1">
        <mxGraphModel dx="1086" dy="377" grid="1" gridSize="10" guides="1" tooltips="1" connect="1" arrows="1" fold="1" page="1" pageScale="1" pageWidth="850" pageHeight="1100" math="0" shadow="0">
            <root>
                <mxCell id="0"/>
                <mxCell id="1" parent="0"/>
                <mxCell id="7" value="http://ics2o.mths.ca" style="swimlane;whiteSpace=wrap;html=1;" parent="1" vertex="1">
                    <mxGeometry x="40" y="30" width="760" height="522" as="geometry"/>
                </mxCell>
                <mxCell id="8" value="Simple cookie clicker&amp;nbsp;" style="rounded=0;whiteSpace=wrap;html=1;" vertex="1" parent="7">
                    <mxGeometry x="190" y="40" width="380" height="40" as="geometry"/>
                </mxCell>
                <mxCell id="9" value="" style="shape=image;verticalLabelPosition=bottom;labelBackgroundColor=default;verticalAlign=top;aspect=fixed;imageAspect=0;image=data:image/png,iVBORw0KGgoAAAANSUhEUgAAAgAAAAIACAYAAAD0eNT6AAAABHNCSVQICAgIfAhkiAAAAAlwSFlzAAAOxAAADsQBlSsOGwAAABl0RVh0U29mdHdhcmUAd3d3Lmlua3NjYXBlLm9yZ5vuPBoAACAASURBVHic7N13fFRV+j/wz7l3WqakzEz6JIGQ0Kt0REVEERBRMSBSbLtiAWy7uvtzC7qru5Z1FdtX7CCi4KoL9rXtWkABC1XpkAJJSJ9kMu2e3x+BXQuQuXfunTszed6vl69dyD1nHpLJvc+c8hyAEEIIIYQQQgghhBBCCCGEEEIIIYQQQgghhBBCCCGEEEIIIYQQQgghhBBCCCGEEEIIIYQQQgghhBBCCCGEEEIIIYQQQgghhBBCCCGEEEIIIYQQQgghhBBCCCGEEEIIIYQQQgghhBBCCCGEEEIIIYQQQgghhBBCCCGEEEIIIYQQQgghhBBCCCGEEEIIIYQQQgghhBBCCCGEEEIIIYQQQgghhBBCCCGEEEIIIYQQQgghhBBCCCGEEEIIIYQQQgghhBBCCCGEEEIIIYQQQgghhBBCCCGEEEIIIYQQQgghhBBCCCGEEEIIIYQQQgghhBBCCCGEEEIIIYQQQgghhBBCCCGEEEIIIYQQQgghhBBCkpmodwAkeXCA9ZxX9vD0wf0KXv12+ya94yGEEHJiTO8ASPJYMXfGZDD+JgAfCxoKL1258ojeMRFCCDk+Qe8ASBJh/Iaj/y8FhtB8XWMhhBByUjQCQFTxwuyyvkzEVvzvPVVl9KH7jNWrA3rGRQgh5PhoBICoggm4AT9OKPOCVl6mVzyEEEJOjhIAErVVV5U5wTD7Z1/g7CYdwiGEEBIBSgBI1IJBdg0A23G+NPSFy2acGut4CCGEdI4SABKVJ66+2gjwa0/0dQbccKKvEUII0Q8lACQqtvaGMgCeE17A+UXL5pZ1j11EhBBCIkEJAInWok6+LoqMXxeTSAghhESMtgESRV6aN7NnGNLvAMyN4PIgGL8zxMOPX7bstTqtYyOEENI5SgCILC/OKxvLGVsEzi+C/FLSfgCrwly4d97yl7dqEB4hhJAIUQJAOvXWwknmhmbbTHD2KwADVOr2M3D+kLGdvTpj9eqwSn0SQgiJECUA5IRenDUrmxvD1wL8OgCZGr3MbgCPhLnlqXnLl7dq9BqEEEJ+ghIA8jMcYCvmzXicgV8BwBSjl20Aw+2zn1/9eIxejxBCujTaBUB+ZvncuVYGPgexe/gDQAY4Lonh6xFCSJdGCQD5mXnLl7eKTBjEwR4G0BKDl6xgwG8DQnBaDF6LEEIIaAqAdOLpK893WELmKwHcCKCbyt1vAuNLvGbnyvlLlwZV7psQQshJUAJAIrJ48WKh557tUzjjiwBMiKIrCcBbnLG/znl+1WcqhUcIIUQmSgCIbCvnTR8iceEaMMwDYImwWRM4fz7M2N/mLVt9UMv4CCGEdI4SAKLY8jllvQQBXwJI7eTSr9sN/jOuemZNLNYTEEIIiQAtAiSKzX1h9feMsWc6u44Df6KHPyGExBdKAEhUGBMeAnCySn77TT6siVU8hBBCIkMJAInKrOde2g+GtSe8gLElVOqXEELiDyUAJGoS4w+d4EstRjPvdIqAEEJI7FECQKI297lXPgbwzXG+9MyMpaubYhwOIYSQCFACQNTB8dNRAEmE8JgusRBCCOkUJQBEFRnp3pUcOPyDv1p7ybKXd+oWECGEkJOiBICoYvLDb/sZ2BP/+xt2onUBhBBC4gAlAEQ1LCg+jo7DgzbOXrbqI73jIYQQcmKUABDVXLpyZXUY6B8QgmfrHQshhBBCCCGEEEIIIYQQQgghhBBCCCGEEEIIIYQQQgghhBBCCCGEJCimdwCEkJhgOXa7W2BmlyHMbAAQFpAKAKKEZgAIibxV4v66w17vEQBcx1gJITFACQAhSaIfYGqwpvcTRWEwl1hvxnh3ztAdHIUA3Ii88JcE4AgYyhnHXs7ZPibw78Jh6ZuMtsZt24CAdv8KQkisUAJASILKtmdnGRE8DcDpDHwsBxsAwKjxywYZ+BYO9ikHPjFxwyf7WmuqNX5NQogGKAEgJIHkWdOHCIIwFQxTwTEU+v8OczBsAsdaSRLeqGo78pXO8RBCIqT3zYMQ0olcS3qRaGSXgLMrAfTUO55OHARnKyWBPVvVcuR7vYMhhJwYJQCExKGhgPGw3XkhA64HcLre8Sj0CQMezfLWv7oJCOodDCHkxygBICSOeFJTnUwyXsvBrwOQp3c8KjnEgMfDLPh4VUvLEb2DIfp6dtw4i9dhygUTO97fPFzFQ2LVorff9uscWpdDCQAhcaAoLa17OCzeCI6rwGDTOx5tMD+YtCrMhb8c8tbt0DsaEjuLy8pMTr93DuP8IgBnAbD85JJ2gL0PLr1al5K6YvHq1bTTJAYoASBER3lW9ymCGL4RnM0CYNA7nhiRwNlbEvBQVWvd+3oHQ7T1yPnnXgKOv3CgW4RN9jLw3y5Y++4qLeMilAAQogchz5ExReRsEQcm6B2Mrhg2cYktqWytexFASO9wiHoWjxtncDksDwBYqLCLpabc2gXzl26i9SMaoQSAkBgpAcw+m2smGP8NA/roHU9c4dgH4KGg3fhUdXV1q97hkOisKisTq30tr4Lh/Oh64q/XDR09ffHixZI6kZEfEvUOgJBk192WlW03m38VMllXMsZnMyBT75jiDkMGGM4Vg9J8hynFkW6wfd8cbGvROyyizOk9Cu8FwxXR98R6Ww9VmN/eufuD6PsiP0UjAIRog+XZXGeJjF/NgWkATLoHxIBUqxG2FBG2FANs5o78v9UfRqsvhFZfGM1tQfD4OAUgBGAtOJZWtNa/h47yxCQBPDr13LES8ImqnTI2duGatz9TtU/SZRYdERITeVb3KUyQLmDgswBeEutnKWNAtxwrSjx2lOTb0SPfhpJ8G4rzbbCnRPbr3tIWwr6qVuyubMWeylbsrvRid4UX+w+3xTI5MAC4EAwXemzOfQz8JS4Kr1c0120AHVQU1yTgr6p3yvn9HBjD6GevKhoBICQKeQ6HGzCMFjibAIZp4CiKdQzZTjPGDnTjtIEujBnggjtNm8GGI00BfL6lDp9srsOnm4+gul6XbduVHGwNY/iXGGbrD7QdOaRHEOT4lpw3cQRj7AtNOmfC8IVr3tqoSd9dFI0AEBKBfoCpweHuzli4hIVZCRMwhHOMAkev/14Uw88mhdlWlJ2Zj4kjslDiscfkNd1pJpw/Nhfnj80FAOyu8OLdDTV45aNKHDjcFpMYAOQz8GvBcW1Y4Mi3OfczhnVg/GtA2A1J2o1W2+4KVPhiFRD5HwZ2gXZ9S9MAUAKgIhoBIF2dUGR1ZwcRymEGlsc4ywFHPsCzAHgAdvR/kQedF82aTQLOGZGNmeM9GN3PCRYnv72cA19sb8CqjyrwzvrDaA/ExXT9IQZ+iHOhCowfBlDFwA+DiZWc8Woe5JU5vvpqKlGsroennrsOwCiNul+3cO07YzTqu0uKk1sIIdpwu90Oc0DqJ4R5dy6giHHWjXOWD4HngiMXQDbifDdMntuCKyYXYfq4fKTbtT7tNzrNbUG8+vEhPPPWAVTUxGxUQDEOVDOgBgwVkFDFGA5InO3ngrTXJPJt+xsbG/WOMZE8PPXcSmhVwpqhYuGadwo06buLogRAZQ9PPac7h1gohNmhBW+9tVPveLqSEsAccGQMl4Cx4GwEgEEAuiNB3+f9ix345XndMWl0DgxiYv0TwhLHu19U48m1+/Ht7ia9w1GO4QCT2GYwfMkR/kTyWjdUoSr+MxsdcIA9MvXcALSbWg4uWPuOmRYCqiex7ipx7JGpE/uBs6Wc4b9DVBzYDLD5i9a+vV7P2JJZnsPdS5Sk8zjjUwA2Gj+vMZ5QGAPGDcnEVed1w5j+Tr3DUcWGHQ1YunYfPtp0BFKc7DGMQhDAejD+psDZGwe99dv0DiiePDz13EYAaRp137Bw7TvJ8UsRJygBUMGD55/bS+R8PcDSj/Plds75GYveePfLmAeWpPIcrt4C57MAzAJQqnc8ajAZBUwbm4tfnNcNpQWxWdQXa3urWvH0Gwfw6n8q4Y+PdQJq2MvBV4pgLx701m/XOxi9PTx14naAaVXlctvCte/016jvLol2AahA5Ox+AMd7+AOAhTH2KIDhMQwp6WRmZtrN7eFLAVwNzofqHY9a0u1GzD67APMmFSEzXfdaQZoqzrPhrqv74qaZJXjh3YN44d1y1Lck/KFvxQzsdgm43WN3fc0hLQ2kGF6ora316h2YHjjYFs3KXHNs0aTfLoxGAKL0xNSp1gCCTegkmZIQKrph7fsHYxRW0ug4Jle4CWDzoN3QYswV5Vhx+aQilI3Ph9Uc12sQNePzS3j13xV47u2D2FOZVOX/mwG+XBClBw42Ne3VO5hYWnLepNmM8Re06JsxzFqw5p2XtOi7q6IRgCiFBL8LktDp95FxMQcAJQARKrQ7+0mM/SYc5pcgSd6nBoOAc4Zn4ZKzPDh1gCtutvHpJcUsYPY5hbj07EJ8sb0BKz8ox7tfVCMQTPjpgVSAXS+Fxfkeu+tlBumv5d6GrXoHFQvmlOAbgXZDM4BUlbtukoLsLZX77PK6+C0oeksmTTIzA28AkHKSy3iYBXNvXPNBdaziSlS5lvQi0Sj+GZxfCkDQOx419Cp0YOrYXMw4M1+zKn3Joq45gH98XIm1nx3Gtn3NeoejFglgKw2G8O/2Nzbu1zsYrT08ddLtAP+zmn0ysN8sWPv2PWr2SSgBUMXDU899DsBlJ7yA4d2Fa945N2YBJaASpzO1PYjfg2MBEnwlvygwnNIrHWcPy8I5I7JQmG3VO6SEVFnrw3sbavD+hhp8uaMBYSnRdxAwP2f8UbOB37m3oSGB90aeXMe0aOgbgKuyQJcB3wcsjiE3r15N1R1VRgmACh6/8JysUEj4HECPn3+VVYuSMOa6N9/sUnOBcuTbnTMY8HdoVUBEY0aDgAHFqRjSMw1DStMxsp8TrlT6pK+mhpYANuxoxKadDfj6+yZs2deUyDsJDjHwm8u9DUk7n93Jzig5mrnARi/659tdfoeFFigBUMmSSZMymYH/BcBMAHYA7eB4XWKh22jx3/Hlpzg9TMRTACbqHUskUswCCrNtKMpJQVGOFUXZVvQqcmBA91SYjEkxW5EwQiEJW/e34PuDLTh42If9h1txsNqHA4fb4PWF9A4vUu9JYfyiyldfrncgWlgyZeJpENirDHAr7KJWAC66fu07n6oaGPkvSgBUtnjcOIMzJSXDXFDTOH/pJqozfgIeW8ZsMPYITrx9MmbMJgHuNDNyMsxwpZuQ67LAlWpGrssMZ2rHn93pZpq/TxCN3iBqG/yobvCjtjGAmsZ21NT7UdPoR02D/+jX2uHzx8UIQiM4X1jR2qDJynm9PTZlSnFYCL8MYJjMpl+GRMy86fV39msQFjmKEgASU26322Ful5Yy4JJYvaZBZPBkpqBHnh3FHiu659rgyUxBdoYZmRnmuK+vT7ThbQ+hus6PI01+VB3xo6K2DRU1Puwq92JnuRdt/nDMYuHAy36L8MsjR460xOxFY2Tx4sWC66v1lwL4PTh6nuxaBnzPwe9csPbdlVTyV3uUAJCYKbQ7+0nAKwB6a/k6dosBI/s5ceoAF0b3z0Bxng1GAw3Rk8hJnGNfVRvWba3DZ1vrsX5rPZpaNR/Q+04ALk7m8sIPTTmnvyCyyeCsB8COrvnhVWB8D+N4c8Had5P23x6PKAEgMeGxuy4C58vAYNOi/+I8G6aemotTBzoxuCQ94Q7PIfEtLHFs29uMT7fWY80nVdhZrlGhP45WMDavwlv3qjYvQMj/0F2SaM5jc94Ahgeg8r5+i0nA+KFUWIfE3q5yL177zyG8/EE5GryqjwxwAHdWeOsXq90xIT9Et0yiJSHf7nqEgV+rZqc9C+z45dRumDQ6p8uW0SXxwR+Q8NZn5XjqjXLsKFe3nDEHe7zSW7cAQFysViTJhxIAohWxwOF8mvOTFEiSyZNlxbUXdMOM8R6IAr11SfwItfvxry+q8MjaSuw4qF4iwIGXcrz18zZ1HENMiKroLkpUVwKY2+0ZLwHsAjX6K8y2YtHFPTDttFx68JO4JQWD8Htb8faGOjz2RgX2Hm5Xq+vX0rz1l2wDEv7oRBJf6G5K1CYW2J0vcmBGtB0ZDAJ+MaUbbpzRgwrtkITAJQkBrxfBQBgrP67Gg6+Xw6dKxUL+eoW3oQxAwlQ5IvGPJlCJmpjH5lwKhrnRdtSveyqeum0ILjw9DyKt6CcJgjEG0WQCg4SBRVZMHu7CrkofKuv80fbcO81s6dYcaF8D2h9PVJLUd9Zlc2f2F5l0P8CqvBbfgvlL17bpHVMyy3c472cct0TTR4pZwM0ze+LyyYVJONzPwAwpgGAEpCB4yAe6lyevcCCAUJsPYUnCSx/X4IHXDqIt2uqDHPdVtNbfqk6EpKtLinPWT0Rk0hIAZwIcNp/5OwD36h1TsipwOK/kUT78C7OtWHrrEPQssKsVlv6YAYI5DczshGDO6Hj4HxMOItxWBam1EpQIJB/RZIIgigi2teHSM7Nxar80XP/YTuw9FMWhdgy/zrdn7Kn0NjyhXqSkq0q2j1j/9cLlZQOYhG9x9N/IgMoWS0b3+UuX0mpaleXbXGcxxt8GoLim7tiBLiy5cVDil+UVjBCMDjBTasd/Rjs6+zXj/kaEGncAnHZ7JatQeztCvna0+EK45ak9+HRrYzTdBQHhnArvkY9VCo90UUm7BmD6oH73ABjyg79KNYf9W//x7TYqNami/BSnhwl4H4BDaR+zJhTgwYUDYLUkyIAUA5hoAjPYIJjTIKS4IdryIKR2g2gvgpCS2fHwF82IJMdmBgsYM4AHGrSPnehCMBggGA0wQMJ5w11gADbuUlz2XwT4+TbB/LI31N6kYpiki0mQO648y+ZemAX+88NmOOc3AlilQ0hJaShgrBbxMhQe9ykwhj9f3ReXnOVROTKlGCAYwQQTIBrBBCMgmjv+VzCDiUZANIExE9QuOyjYciC1VoBLtNMrWQkGA8ypDoTafLh+qgf5bgt+v2wvwpKi6R+nYBBeAHAmaGcAUSgpRwAuHjzw1wAmHOdLBWUD+7zzj807KmMdUzISba6/gCk71U9gDPdc2w8zxsf64c/AjPaOT+4WNwRrDkSbB6KjEKK9G0R7PgRrDoSUTAgWFwRTGpjRAWZIARPNYMyg+sP/WFw85AMPqVtNjsSXjl0CRgiigJ45JnhcZny0uRFcQQ7AgMJUo9XcHPS9r36kpCtIugTgrYWTzD6/6QUGHHclmcRge/Xb7f+IdVzJptDmPJszPAYF60gYA+78RV/MjNEnf2ZIgWDJhGAvgCGtGII1D4LFBWZKAzNYwUQTwET9V8SEWsEDNKLbFTBRhGgyoTTXjG5ZJnz4bQMUDQQwjLEbrZ+3BH17VQ+SJL2kq67S0GifxYCcE32dgZWtvOKSgljGlGzyHA63xPAcFLx/jj38Z5+t8Y9AECFYc2BwDYTBfQrE1GIIZifA4nfWi/PYnT9P9McEASaHHVPH5uGvV/RQuu1VEBh/Ps/hUDQNR7q2pEsAwHBDJ1cYeEhS9XCarkbghqcA5Clpu/hKbR/+TLRATCuFMWsExNQeYEbFaxNjjgc1OmKWxDVDSgouGF+E383qprSLvKO/k0Qnq8rKTC/MK7v0o3Hj4vcTxnEkVQKw/PKLxwEY3Nl1nPFrls2dq8m59Mku355xDcCmKWl75ZQizJ2ozcOfiWaIaaUwZJ4CISULifbW5qE28ECz3mEQnQgGAy6bWoIZp2cr7IFN6/jdJHoIWtk1DFhRWZD1C71jkSOx7pKdEDjr7NP/MRkG5pujaTBJKNfu6sPA/qak7RmD3fjt3F5qhwQwAaK9EAb30KMPfr0n8hXgEsJNu0DFgLo4QcAdVw/A4GJlo1YM7G+5dlcflaMinVi8eLEAzq8HAMb4TYsXL06Y52rCBNqZlZdf0g0cUyO9noPdxBPyaaGPEsAsAisAWOW2zXFZ8LeFA1Qv7ctMqTC4BkGwF2i0Ml97POxHqH4rDf8TAIDZJOKJ3wxDdoZJSXOrCL6qG7pZ1I6LnFiPfdvOA9Dz6B979ty/7Rw945EjaRIAzqUbIG9XQ68X585ImB+U3nwO510AH9L5lT9mEBmW3DgQToeiG9oJMIiObjBkDAAzyM5H9MfDkNqPINy0E6Ejm8CDigvCkCSUmW7CwzcPhkFUdHvuH3Y03612TOTEBP7jdWdSuNN1aHEjKRKAp68838E5v0J2Q8YT5gelp0Kb82zGcZOStosuLsGwXhnqBSMYYHD2hWDLT5zxGw7wUCuktiqE6rciWPMFwo3fQ/LVQtEGcJL0hvXKwA0zeihqyzluzE/NmKJySOQ4ls2d2R8dxZj+izFMfGnuzISYikmKBMAcNF0FIE1B03MT5Qell2i2/A3rlYFrL+yuWizMYIXBOQjMlK5an5qQguCBRkitFQg17ECw5guEjnyDcPO+jn3+9NAnEbj2gu4Y09+ppCljEnumuy1L6YpCEiFRkG7Ezz+KsLAQXqRHPHIlymeoE1q8eLFQunfbTgDK0mXG/2/286/QtsAT8NgzXley6t9hNeCt+8YgPzNFlTiYwQaDq3/87OPnYfCwHwj7wcPtHf8F24BQW8KX891Z7sW6rfXYtq8ZOytacLjOj7qmwH9L1lrNIpxpZvTy2NG7yI5+xak4dYALDmuc/GySyOG6dkz+9edo9Co4w4zh7YqW+img1aWaWHVFWWYwjAMAjneTawshVHjZstfqYh2XHAn/G1uyZ+siMKbs4Q8AnF224vKyJ2Y/t/obFcNKCh67axHAFW35u+uXfdV9+Dv7xejhL4GHA0A42PEgl/yAFOr4O+no34UD4FIQyXRf3by7Cf/89BDeXH8YNfX+k17b5g+jraYNFTVt+OCrGgCA0SDg1AFOnDsyG+edmgurOemKjOoix2XBXVf3w/UPKLg9cUwqsDlvKm+tf0D9yEhAwg3s+A9/ALAaYFwIYHEMQ5ItIUcAnrj6aqPdV38BZ+xGBoxRoUsJwFsAe2j2slVUVxtAfqpzFJPwbwCyV+9ddEYe7r9+gCpxMKMNhox+gKDuMcFcCoD7G8FDreAhHxD2dTzku9CRvBLneOvzw3j6zQP4drd6JYjT7UbMOacA8yYVwZ2m5uLPruu2x7di9UeKjjAJAdKECm/jv9WOqSviAFt5edlELuFGAOfg5M9QDuBNzviDc55/5YPYRChPQiUAq64uSwu243IAtwDQqpzcJjC+xGt2rpy/dKmCcbfE192WlR1koU0A8uW2Lciy4s37RsOeosKndcEIg2vQ0WN1o8fDfnBfNaT2OvBQmyp9JqoPNtXgvhd3YWe5dtsPLSYB11xQjPnnd4fZlBTLjXTT5g/j/NvWYW+V/MOiOFDNwmxoha+ODkFT6NnLL7eYuHcGOLsVQD8FXewE8JjX0v7k/KVr4+bmkxAJwIrLp5cizBaAsV9AwT50JThwmIE9wYLiI5euXHkkFq8ZD0oAc7vd+R6A0+W2NYgML985AkNK1Vikx2Bw9lVlwR8PtiDsLQcPNCTTqL0itY0B/PHp7Xjni+qYvWZhthWLr+yDcUOoXH00tuxpxvTff4FQSP4oFQM+E72pE/Zjf7sGoSWt5XMuyhUEw3yALwDgUqHLJnD+vGAw3D/r2ZfKVegvKnGbAHCAvThvxlkAvwHAFOgXqx/AqjAX7p23/OWtOsUQK2KB3bmSA2VKGt88sxQLpherE4ijW8dWvyjwkA/hln3g/gZVYkp0b607jD88tQP1LfosUpw1oQCLr+wNo4FGA5R6/PW9uO/FXYraMs7WlrfWXQQgpG5UyWnFvBlPAvxyaLNWLgjgqdnLVl+nQd8Ri7sE4K2Fk8wNzbaZUQy1aOkzcP6QsZ29OmP16mQ7uo157M6lABTVsh7WKwMr7xiuSrU/weKEmN4byt+eHFJrJcIt5ehY3tG1edtDuGnJZnywsVbvUDCwJBWP3DgInqwELOAUByTOcdmfN+KzLfXKOmB8eUVLw2Xo8mNhnXtxbtlHnGGchi/xn9nLVp+hYf+dipsEYNXlZTlBiV2j4lCLlnYDeCTMLU/NW75c/qRcHPI4nPeB41dK2qZajXjzvtGqrPpnggkG92Dli/7CQYSadoAHqLoeAFTX+/GLe77Ctn3xc9BQut2Ip397ikpTRV1Pdb0fk3/9ORoUjuRwhgcqW+pvUTmspLTisrKh6Kj0NwvqjARIAD5knC2ZtXzVG0znREz3BGD5nLJegoA7AExH4m1LbODAE0HBdscVzz2XqHNrQoHd9SgHV3SSGGPAozcPxrkj1ag5wmDI6AtmVvZg4CEvwvXfgUsn38bWVXyzuwnz7/0KtY3xV5fAZhHx+K+GYOzAeM/149MHm2pw9b1fK64pxYAnyr311wNItpFMTSybW9ZdZHw+wH4JQEl1phZwrBQhPHjJ8pd3qB2fUrpv1p0+uN8nDBiHxKxKmMKAsQaE7P/4dtu7egcjVz/AZLI7XwBwudI+rplWjMsmFaoSj2DLh2DNUdSWh7wI1W8DpC65ceNn3t9Yg6v++hWaW+NzujcY4nhr/WEMLE5DUQ5NB8hVnGdDKMyxYYfi9S3DUk2Wgc5Azj8b0Rifb5I48trm7Y2vfrv9/Ut69ntMMuEAB0oYkNlpQ469YOwehIxzZ694efUrm7fF1YJy3R+6LA5iiJbE9U+k5PKkpjqb7c43GTBTaR+j+zlx8yUlqsTDDFaIdmWJBA+2IFS3DZDoPgYAn26uw8IHv4U/EN/rH/wBCdf+7Wt8vatR71AS0o0zSqIcQWEXhO3Naz2pqYrqDXdFM1av9s5+fvXS3cX9+jPwZ052LQN/clePfqWzl626Z/aLL8blSmTdH75hLlwM4J9IzNVaLQAearX4fqN3IHLk29IHQzJs4MAEpX1kZZjx90UDYRDVmUUSHd0BJv/tyKUAQg3fAZwe/gDw1c5GXHv/13H/8D/G55dw9T1fY//huNkanTBEgWHJjYPgiWLtDQcmeuacXQAAIABJREFUQDJ840l1jVAxtKS3ePFiiYekO3HiHRVBKSzduXjx4rj+RdR9DcAxK66cXowQuxpgVwNQ8fg4TewD2BNGI39yxtOrFS7H1UeBw3kF53gUJy5h2SmbRcSKPwzHwBIl5y/9HBPNMGQOhey3I5cQqt9Kx+ketWVPM2bfuQFenzrJUG6aHb2y3SjJyoDbngK72QxBYGj2taOqyYudh+uxubIabYHop11KC+x4/e7RSDHr/pkk4Wzd24JL7/gy2p97O2O4rryl/lm14uoKVswtewUM04/zpRdnL1s9O+YByRQ3CcAxT195vsMSNs9Cx/GzvfWO5yc2gfEleQeOvHjmxx8n1EdOt9vtSPFLD3OOy6Lpx2QU8NRtp6i6eIuZ0jtq/csUbt4Hqa1KtTgS2aEj7Tj/N+tQ1xzdgj+BMQzIz8KpJQUocnae4IUlCRsPHMJH3x9AQ5svqteeMd6Dv14Tbzt/E8O6bfW48u6N8AejW1TOGJ73mYWFR44coaw6AsvnXHyaILD//PTvBS6NmrX8H1/oEZMccZcAHNNxyt/28XFQCCgAxv7JGXtgznMvr9cphqgUWF3DucBXACiNph+BMTx040BMGa1sod6JMHMGDBl9ZbXh/gaEGnaAtjMDoZCES+/YiI3fRzfN6Mlw4ILBvVGQkSq7rSRJ+M/ug3hv+z6EJeWjnn9fOADTTstT3L4re2/dISxYsgWhcHS/E5xjPxf4nKqWhs9UCi2prZhb9iUYhh/7Mwc+n7Ns9al6xhSpuE0Afmj5nJmDBCZdB4a5iGLoWqYagD/Lw9Ijc1a8WhGj11Qb89ici8BwLxQc6vOjjhjw51/2xawJ6h/B0DEFMCzyBlIQwSPfAAl+7K5a/vTcd3j2rQOK2xtEAVMHlGJksSfqG0JFfTOWf7kFjW3KdsU6rAa8/+BpyEynQ4Rk4xyr3t2H3z67S/H2wB8IAbirwlv/J9BWwZNaMbdsLhiWHfszY2zmpc+vWqVnTJFKiATgmGVzL8wSmfGKo8WCPFq8BgO+5QyPGduwfMbq1dGNaeooL8VZIIhsOcCjrjQlMIY/XtkHcydqdf4SYHAOBDM5IriSI9TwHbg/oZZeaObt9dXKjoo9ym1PwewRA5CXHsn3PjJefwDL12/B/jplq/svPD0Xf1swULV4upJQeztefO8g/vTifoQlVUbH/iOF+dwqX8NBNTpLRqvKykzBFOwHkMuAyhZLRvdEOUguoRKAY1aVlZmCFj4NjN0MYJQKXcZVdaZoeeyuiwD+JJQVrPgRo0HA367vj/NOzVUhshNjRjsMzoEdQw0nIbVWIdyyT9NYEkVFTRsm/3qd4sVf3VzpuGLMIFiM6tffCoTDWLZuM3bVyE/UGANevmMEhvWO97XA8YdLEvzNLfjwm3rc8uSuqNcEHNUMzq+raG1YoUZnyejFuWV/4Ax3AOw3s5etukfveCKVkAnAD624bMavwPl9UXTh44JwxpznXt6gWlA68cCTAnvbXwEsUqM/q1nEIzcPjtkpboLZBTG95wm3A0q+wwg370nw9Ew9V9y9Cf/+RlldkT45bsweMUDTg3lCYQlPfvq1opGAgSWpeP3u0RpElfyC3laEg0F88X0zFjy2E63t6ozgM2C1aJCu3t/YSIUbfqLjqHq2yOjjf5+xerV2Z2yrLOETgI7Fgtt2AuihpD0He2zOslXXqxxWzBVY3cO4IL2IKBf6HeNOM+GJW4fEvF47Ey0QbB4wcxqYaAYkCTzYhHDbYTrV7wfe+OwQFj20WVHbPjluzBs1AIKg/Za7tkAQj328EbVe+fv8l/1uGJUKViAcCCDY2vH93rq/Fdc++j3qmtUakea7IQizK5rrvlSpQ6KjhKtg91Mff/wxnz64vwhgooLm3MCFy+OtPKNMzOPIuBUMKxBJacoIDClNxwu/H4ZSj12N7uThIXB/PaS2Q5C8FZBaKyC1HwHCiXrUgvpa2kL45X1fo9Un/5Odx5mKK8YMgkGMza++URTRI9OJjQerIMmckz5c147p46I7ErorYoIAyd9xHkZWugnnjXBj8z4vDjWosWiWOcFxucNsDbUEfJ+DxuMSWlJU3WgX258C0KSg6TvxdDCDXPkOh8vjcL4Bzu4BoPD4vB+bNaEAL90xHDkuixrdRYnuLcdzz4qdqKmXf+CRy5aCK8cMgilGD/9jslNtOG9AT9nt1m2rx9a98XOKYaJgjIEZ/3c7yEo34rlb+uAXE1XbXmlknN/tsTv/1d2WpcYpYEQnSZEAXPXMmhZw/rzshpw9pEE4MZHvcI5m3PgNOCar0V+KWcDfFgzEXVf31XRemETnwOE2rPpQ/q5Ugyhg9sgBsJn02V43qns+emTKX9T3+idU6EkJ0fDjhZ0GkeHmiwpw/1UlsKpXbXF8kIU25juctFgjQSXNnT4M9iDk7Vf9/tLlq97TKh4t5dudZYzjA6i0FbJngR2v3jUKF56u7Up/Er1HXt2jqNDL+QN7Il/FrX5KTBvUC2Inuzx+as2nh6IubNMVicbjDwhOHuHCP/84EEN6qPZe8DDOPsq3ueaq1SGJnaRJAOYtX72PAW9Gej0D/3sCbvdjHrtzMQNehgoFkRgDrjqvG9b8dTR6Fer7cCCdO3C4Df/85JDsdgPyszCyu/5z6dmpNgwqkDdifKQpgHVbqeaDbIIAdoJFnvkuM54/OiUgyEzIjo+bGePPe+zOxUiCheVdSdIkAAAAjkiH9BtCPOUFTWNRH/PYnQ8C+CNU+CVzp5nw1G2n4PZ5vWAyavA2YAKYKQ1CShYEixtMjIc1BYnt0Vf3yv40bDEaMG1QL40iku/MXt1lv3k/31KnSSzJTjhJfYdjUwJP39QbORmqTAsxAH8ssDsfR7I9V5JYUv2gLl2++kMGfNvZdRx4Yt7y5a2xiEklhgKH81motL//9MFuvHnfqTjzFFU2DfyMkJIDo3sYDM7+ENNKIab3giFzKAzOfmCGWFVyTi61jQG8/qn8T/9TBpTAYYmfsrpZDiuKZa4FWL+dRgCUECJY7DmyVyrW/HEgJo9QZ7slB+bn250rhqq0KJloK6kSAACQwJZ0cklIFMXHYhKMOgweu3NVtKf4AYDFJODOq/rg2d8O1ajWugAxrSfEtB6A+PPf/45T/waCGXXYXpjg1nxahVBI3iE7ngwHhnfTf+j/p4YWyltrsm1fs2rFbLoSFuFuD3uKiPuvKsGdc7sjxRT9I4EBl1TbnS8BUL/EJFFV0iUAzrSWFWCoPuEFjL0y69mXymMYUjSYx+Z8AsCF0XZUenSh35yJhZ1V21VGMMHg6g8hpZNRBcEAMb0XkvCtp6l//Fv+avhz+5bE5YRs71wXmIw3YSjMsa9KfiGhro6J8p6/F4/NwprFAzG4WJUE/SKP3bkSSVBrJpkl3V148sNv+8H50hN9nbPE2fpXYHc9BoYro+mDMeCKyUVY85fR6F2kzUI/ZnTA4B4IZoysfyZaOk8UyH9t29eM7w7IO569ODMdpdlRHwWhCZvJhNw0eQ+ZA9WJNGMXHxjDCRcCnsixBYJXnaPKAsGLC+zOR6PthGgn6RIAAAjz8CMAjlcpZeOc515eH+t4lPA4Mn7Dwa+Jpo80mxFP3nYKfn95b5hVGNr7OQbBmgeDcwCYYJbX0hzbEsOJ7HUFK//P7NlN/UBUlJtmk3X9wWoaAVBCSblno0HALdML8OSNveFOi24qnwPz8x2u30bVCdFMUiYA85a/VgPgZ+cxM8Ye0CEc2fLtzjJwdlc0ffTIt+GVP4/EeI0W+oGJENN7QUzt3ukJfsdtLsTPwrR495nMVfCZditKs+O7hr7LZpV1faM3IU5XjT+i8lv86N6peO33AzG6b1pUITDO7/LYMmZH1QnRRFImAAAgScKDP/mrqhZz+iu6BCNDntV9CgOWIYqfzeTROXj9L6PRI1/ep6zIMRgyekOwKH/IcE439Eg0tASw86C8w8VGFXvicu7/hywGefPTQZkLIEkHuVMAP+VyGPDEgl64dFxUFX8ZGHsqz+o+JapgiOqSNgGY+8LLXzGGT479mTP+yPylS+P6qVOYlpYhCNJqAIo2zQuM4dbZpXj4xkGwWbRbeyNYs8FM0Q3hcz/VeI/Ehh2NkHjke/8ZYxjkif/y7KIgL0UJqnOufZcTbQIAdNQM+N2sbrh9Zrdo1gVYBEFaXZiWJr8eNNFM0iYAAAAmXX00CVgeZPa/6x1OJxgPGZ4HUKykscAY/nJNP1wzrVibVf4/fK2UnOg6kIKQ2mvUCSbJfblD3h74oozUuNr3fyJtwZCs643GeB/TiFNMvVv87PHZuOuyYtnJ2w8UH73H0Q8zTiT1Ps1Ln/vHdwBO1zuOSHjsrus5+FQlbQXGcM+1/WJzdCoTwIzy5m9/jCPUtAuQ5D0Auqqd5fKG/3vnuTWKRF0NrT5Z17vTqZKkEoLyh/VxTRvthsnIcNszys6k4IxP9dhd11d46x5RNTCiSHKPACSIgrS0HgD/i5K2HQ///rE7N10QoTiBl8IINewA9zeoGlIyqzrSLuv6oozE2F1R3iBvCihLk8JVXYAKUwA/NWmYC/dc2QMGUWlywe/Jc7jjpz51F0YJgP4EHhZfACC7+gZjOPrwV+2c785JQYDLX5DFw+0INWyhh78MnANVRyL/pMwYQ35G/FdZrGttw+EmeSMbhdlUQloJOQWX5Jg0zIW7L1M83WgVJOl5UJEg3VECoLMCe8Y1AEYpabtweo/YPvwBgAOSX968NA82I1S3GTxIxVzkqGsOoD0QebLlsJhglrm6Xg8b9lfJOobTIDL0L45uK1pXplUScN5IN647T+GJ5AwjC+yuqOqckOhRAqCj7rasbA72ZyVtJwzLwqKyHmqHFBHJezDCUQAOqbUSobqtHSMHRJa2dnnrJKym+D9/xesP4vM9FbLa9C6yw2qmD4uKaTANcMx1U/IxaZiy7cAc/O4CqzvGn2DID1ECoKOQELwXgOxtMaUFdjywaIBKZ3nLx0M+hJt2ASf7HCeFEG74DuGW/Se/jpyQUWYRF1OEh7/o6dWvd8Afknewz5j+ibGwMV6pvRDwhxgD/jSvGD3zFS0MTuUCv1ftmEjkKAHQSZ41fQjnbI7cdul2I568dQjsFn2HeqX2Iwgd2QweaPrx851zSO21CB35RvZUAfkxo1Her2dbIKBRJOr4ZNdBbKuqld3u/LFRbjvt6lTcCng8VrOAR64rRbpNyT2JX1podQ9VPSgSkfifMExSTBDugYIE7M6r+qAwO5pteOrhIS9C9VsBwQgmWgBI4CGfokWC5OeMBnmf3Jra/ZA4121k6GS+OngYb27dLbtdzwI7+nZL1SCirkONYkCd8bgt+P2l3XDLk7J/xkwSwvcDOFODsEgnaARAB3k21wQGnC233VlDs3DeqfLOUo8JKQgebOlY5EcPf9U4rAZZhzgFQxL21MbfLotPdh3Eqk3bwWVUNDzmiilFGkTUxWg4BfBDk4a5MH6QkkJ/bFyezTVB9YBIpygB0IHApNvltrGnGPCnX/TRIhwSpwTGUCRztOfLfZUaRSNfezCEFV9uxRtbdil6+OdnpmD66bRGLFqxHBH64+zuSLXKH1hWck8k0aMEIMY8qa6RABsnt93tl/VCjouqoXU1A3vI2/62ubIG31ZUaxRNZDiATQcO47731mFzFLHcWNYDBgPdoqIWw8WhmWlG3FpWqKAlG5fnyDhV9YDISdFvV6xJ0m/kNhneJwMzzlS435YktJF95Q+pvrxxOzYdPKRBNJ3bW9uI//v3JqzatA1ev/JFiWP6O3HRGTGqbpnktKoDcCIXjs7EiJ4O2e0Yx60ahENOIv5WCyWxvJSMQkFkeyGzAtZLdwzHiD5OjaIi8ay+JYBRV3+sqO76gPwsTO5fAqdN2yp6YUnC1qpa/Gf3QVTUR3/Ko9Us4s37xqAoJz4WuyYDf2OTomkYpb7e04LZ926X20wSxXDJgaamfVrERH4u/jcOJ5F0c8ptYEzW4USnD3bj+ov0KfhD9JdiFrF5bxP2VbXJblvT0orP91agsrEZdrMZGVaLap8Gw5zjYH0TPt55AKs37cBXBw+j2eePul/GgAcWDsTwPnRqrJqkYBBcil0CkOs045t9XpTXynpPMEisrTnY/oFWcZEfoxGAGBkKGA/bneUMkHVY+6t3j8LgEiqD2pV9uaMel/xxQ9T92EwmlGRloCQrAwUZaXDbrDBGOMfeHgyhxtuGqoZm7Kypx+6aBvhD6p/oeN0F3fGrS3uq3m9XF/C2QgrGthrnlv2tmPmXrXKb1WR76z2bACodGgNUByBGDjsyJjIu7+F/1ilZ9PAnGNHHiTNPycRHX8kvovNDrYEAvq2o/tEiwbQUM5w2KywGEUZRgMVoBGOALxCEPxyGPxBCXZsPLe3aFxm69OwC3DKLHv5aEAxizBOAAd1sGDcgAx9vkbU1NeuwI2MiWhre0Cou8j+UAMQI48IlckviXje9u0bRkETz+8t744tt9Wjzyyuj25kmnx9NKgzdR2vWhALc+Ys+Sk+XI50QRH1u9fOn5MlNAMA4uxQAJQAxQLsAYiAPeVaAT5PTpmeBHUNKE+Nsd6K9bjlW/OGK3nqHoTrGgJtnluKuq/vGZQXDZCEY9UkABnW3ozRP5mJOjvOzs7Nt2kREfogSgBgQHf6zAcg6qL2Mtv2Rn5gx3oMrk6gynsNqwMM3DsKC6cV6h9IlCDodFX3hGJmHOTHYTG0hqgwYA5QAxADnfIqc6w0GAdNOi8OSv0R3/29eL8wcn/jJ4eCSNLxx72hMHk0H/cSKXgnAtNHuiBebHiP3nkmUoQRAewzAJDkNzhqaCXeaSaNwSCITGMPd8/vh+guLE3K+3GoWcfu83lj955EoyKJ9/rGk1zRAht2IM/rLXsx8HmiXmuYoAdBYrt3VG4Csj2wXUf1zchKMAbfMKsXjtwxBut2odzgRMRgEzJpQgH/9fSyuOq8IYowOqCH/IxgMQAxOBjyeaaMz5TbJLbQ76fATjdEuAI2JjJ8mZ/G/QWQY3Z+q/pHOnTMiC6f0Gos7n/sOb35+CDEs9BYxUWCYdlouFl3cI26Ose7KRKMRYX/sd32M6pMKg8hkVbSUGMYCkF1OkESORgA0x8fKuXpwSTrsKZSXkci400xYcsNAvHHPGEwYlhU30wLpdiOumFyE9/4+FvdfP4Ae/nFCMOkzYmQzixjQTdY6aMi9dxL56EmjNc5Gybl8zAD69E/k69PNgaW3DsGWPc1Y/u5BvPtlNVra1K/UdzKiwDCsdwZmjs/HpFE5MJvo80W8EQ0GhAQBXJJi/tqjeqfi6z0tkTfgwhjtoiEALbLQlNvtdljapUbIGGl5+Y4RVAedRM0fkPDhV7VY89khrN9aj6ZWbarA2S0GjOznxNnDM3HWsCy4UmnxarwLtbcj5GuP+etu2NmMy/62Q04TbjEhfXe9CidMkeOiEQANmf1Sf8h4+FvNIgaXUulfEj2zScCkUdmYNCobEufYXdGKDTvqsWlnE/ZWeVFe3Y6GFnnlfd1pJpR4bCjOs6NHvg1Deqajf/eOuV2SOESzWZcEYHCxHSkmAb5AxKMPrC2I/gA+1zCsLo0SAA0xYICc60sL7LL3yxLSGYEx9Cywo2eBHbPP+d/ft7SFUFnrw5GmAPyhMPx+CU2tQZgMAlLMIlJtRlgtIqxmEXmZFqRaE2PHATk5xhgEkxFSILZnAxgNAnp5rPhmrzfiNozzAaAEQDOUAGhJQomcSZZiuSUzCYmCw2pA7yKH3mEQHRjMZgRinAAAQG+PTWYCwOgsdA3Rx00NMQZZdVuL8+SukiWEEPkEg0GXyoAl+SnyGjBQnWgNUQKgIc7RTc71xXl0/gUhJDYMFnPMX7PALfM1mbx7KJGHpgC0xFAg5/JknwLwtodQVduO8to2NHvDaA+E4PNL4BywW0U4UgxItRlRlJMCT6Y1bva0E5KMBKMRLMZbAvPdFnkNOCvUJhICUAKgJRFAlpwGhUlyAqa3PYSvv2/Ctv1N2HHAi31VXlTW+mWtOrdZRJR47OjXPRVjB7owdqCLCiQRorKOHQG+mL1enlPuNlHuGgoYNwGxX7DQBdBnLI0UWN15XJAqI70+zWbE18+O1zIkTX1/sAXvfFGNT7+tw7d7mmSV/IyE2SRg4ohszD67gOokEKISzjkCzS0xHQUYeeMmtPgiL1IlhVFY5asv1zCkLos+UmmEAblyHoGZGbGfj4tWTYMfqz+qxOufVGFPZaumr+UPSFjz6SGs+fQQRvXLwK2ze2FwCdVMICQajDGIJhNC7bGrC5CZbpSVAAhGlgsfKAHQACUAGgmL4VzGIx9gyc5InApq3+5uwtI1+/CvjbUIhWJfUnT9tgZcfPsXmH2OB7+Z0xspZlrLSohSBnNsE4DsNCP2Hop82oFx5GoYTpdGCYBGGJisN21mhszFMTrYsKMBS17Zjc+21OsdCiTOsfzdcmz4rhFP/HownS1PiFKCANFkRDhGdQHc6TI/7HCJzkfXCH100gqHrDdtdnr8TgHsrmzFL+/9CjP/+GVcPPx/6LsDLbjo/32B7w/KOGSEEPIjBkvsPoBkpsqrKCnJ/DBFIkcJgEYY5A1bxeMagFBIwpJX9mDKrz/HBxtr9Q7nhOqaA5h9x0bsKo+8whgh5H+YKEIwxmZAODNN3giA3HspiRwlABqRwGW9abPjLAH47kALLvrdF3hw1W4EdZjnl6u+JYAr//oV6mUecEMI6SCaY3MPykyTeaYErQHQDCUAGmFM7hqA+FgEGAxJeOClXTj/t+uxdW9incJZWevDbY9v1TsMQhKSaDSCiaLmryM3AWBM3ocpEjlKALQiM2vNioNFgPUtAVx+1yY88upeXVb3q+GDjbV4e3213mEQkpBEk/YfRLJkLgLkYLQIUCOUAGhDAJAtp0GmzosAt+9vxvm3rcO6bfG1yE+Ju5d/n7AJDCF6Es0mMI1rcMtdA4COiqq0Y00D9E3VQLY92w0EIx7nsllE2CzaD72dyFvrDuPXj22Bz6/tQ5MxhlSLCU6bFQ6LCVajERajAcFwCIGQBK8/gPo2H2pa2sC58kqClbU+vPqfKswY71ExekKSH2MMgtGIcEC7tTRWswCrWUBb5PcbocDqzipvO1KlWVBdFCUAGjBJoSIuY2wlS8cFgM+8eQB3LfsOUTxvT8hlS0HPbBcKnKnIS7Mj026DQez8G+MLBrGnthHr9pZjd02Dotde/m45JQCEKCCYtE0AgI5RgAM1kRcfkgxSIQBKAFRGCYAWBKmHnGMWcl36zP8/99ZB1R/+mXYrTinMxaCCbLhsMs/+PirFaET/vEz0z8vEwYZmrN64HTUt8koNb9vXjJ3lXvQssCuKgZCuSjQaEWIsqlG4zuQ55SUALMxLAKzXLKAuihIATbBSOVcX5cT+FMBl7xzEn57focrDnwHomePC6aVFKMlU96CewoxUXD9uGJ789CtUNMgr9vPhVzWUABCigGAyIez3a9a/x20BIGOXEWPFmgXThdEiQC0w9JBzeWGOsk/KSq34VznueFadh3/PbBcWjh+BK8cMVv3hf4zFaMDckQNhlrlFad3WxF/QSIgeRIO2a5IKsuRNezLGZd1TSWRoBEADHOgv5/qi7NjVsf9sSz3ueCb6h7/LZsUFg3uiZ7ZLncA6kW61YFSxB//edSDiNtv2UnlgQpRgRpnFemQqzJQ57cnl3VNJZGgEQGV5yLOCY5CcNrFKACprfbjhwW8RCit/+jMAp5UW4qYJI2P28D9mUIGsnZWobwmgtpEqAxIiF2MMgoajAB63vBEADjYoMzOT5vNURgmAygR723DIGFkxiAzdcrVfA9AekHDt376OqlSu1WTEvDEDcd6AUhgjWM2vtvx0BxwWeXuIjzRqN49JSDITDNoNEHfPSYFBlFVvQDT7+DCt4umqKAFQGWfiGDnX9y5yxOQ8+z899x22RjEk3s2ZhhvGj0DfnEwVo5LPZZM3WtLii80Rp4QkGy0TgBSTgNJ8eb/LnPHRGoXTZVECoDIGfrqc64eUpmkVyn9t2tmIlz4oV9x+kCcbV59+CtKt+pcrlhtDS2tYo0gISW5anwswuFjeiD7jfJw2kXRdlACoyO12O8DZmXLaDO2lzcr5Y0Jhjt8/uV3xor9RxR7MGt4PohAfbxVBZpnSljYaASBECSYImpYFHtxd9pT+md3S09O1iKWrio+7epJIaQ9PAbis1S2n9NR2BOC5tw7guwPKhv7H9+qGCwf30rw2uBySzEzGYtavxDIhiY5puNZncA/ZCYAxHGLnahFLV0UJgIo42Plyrs9xWeDJ0m4HgLc9hEf+sVdR2xHd8jGxX/xtvfUF5X2id1i13c5ESFITtEugCzItyJZ5MqAENk2jcLokSgBUkp2dbQMwRU6bCcOyNIqmw4vvlaNZwRB47xw3LhjSS4OIotfkk7eq35FCIwCEKCVoPPV35iB5U6AMmHz0XktUQAmASoxtwUsApMppc85w7RIAzjsOxJErO9WO2SP7Q4yjYf8famyLvH44AKQ7aASAEKWYoO194CyZCQCAVGNbcJYWsXRFlACoZ76cix1WA0b21W4B4KadDais9clqYxAFzBreFyaNV/8q1djWjvZgKOLrDSJDnk4HLRGSDJjGIwAje6fCkSJ7u6Gsey05MUoAVJBvSx8EjuFy2owfmgWjQbtv/4cbj8huc3af7shNc2gQjTqqm+WdCJifmQKDht9jQpKexiOBBpHhtP4yF0JzDCu0uodqE1HXQndHFTAIC+W2mTxKXllbuTZ+3yDr+nSrBaeVFGoUjToONjTJur57buzOWCCEKDNxqPyS4mEmXa9BKF0OJQBRyrZnZ4Fhtpw2WRlmnDnErVVIAIBd5V5Z159eUhg3e/1P5ECdvASgd6GsJRmEkJ9g0H4t0JkD05EPpDC/AAAgAElEQVSVLm+tDmOYXWB152kUUpcR33f8BGBAYBEAWRPNM8d7NB2aDoYk2av/39yyC0s+/BKvffM9vq2oRlsgvgroSJzjYL28BGCIxjUWCEl6MVgLbBAZLhwju8S4CSy8QIt4uhI6DjgKecizMrRfI6eNwBhmjM/XKiQAQFiC7Mp/Yc5R2diCysYWrN9bAcYYCtIdGFSQg0GebNmH8KjtcJMX/pC8sr6DS6loGCFRidFuoBmnZeGpdw4hLEV+4+KMXZOZmXl3bW2tvOFO8l80AhAFwe6/CoCsCaxxQ9zIz0zRKKIOZqMAsym6Hy3nHAcbmrF2807c/faneObzb7Crpl6lCOXbe6RR1vWeLCsyZRYZIYT8GFdaQ1ymXKcZp/aTPWKXYW4LX6VFPF0FJQDKiQBukNtozkTtF9oxBvTIU+/obIlzfH+4Dk99+jWWfPglNldUyy7JG63vquXtaqDhf0JUEMPf89njFC2MvgE0kq0YfeMUyrc7LwK4rFq5PQvsOGOwtov/jpkwLBPb9zer3m9lYwtWfLkVWQ4bzhtQil458lfwyhUIh7FP5gjAKTT8H5Xymjb8a0MtvtndhAOHW3HgkA/NbUGkmAWYDCKynGb0KXJgUEkazhmepfmoVlfW1BrEuq312LavGfsPtaG6wY/2QMd0mM1iQJbTjF6FDvQutGNwaRqcDvVGvmKZ5p/WPx29PVZ8V9EWeSOG7gV25/Ryb/3L2kWWvOKz3FsC8Nid6wCMktPmvuv6Y/o4bef/j9ld2YpzbvpU89fpm+vGtEG9ND0qePvhWjz/+WZZbd64dzT6dqNdAHK0tofx0vvlWP1RJXbK3EUyoEcqLju3CFNPzdG0vkVXUV3vx9vrq/H+xmp8uaMBoXBkj2JRYBjRJwMTR2Zj2mm5SLNFVwkzHAgg2CrjgRyl1z6vxe3Pyzy/hGFjRUu9rDospAMlAAoUOjLGSpx9IqeNO82ETx49I+q5eTkWPbQZb3x2SPPXsRgNOH9QTwwtzNWk/9WbtmPjgcj/HZnpJqx/4sxYrV9KeC1tITz9xn4se+cgGr3R7f7Idprxq0tKcdEZ+fT9V2D/4Tb83+v78Np/qhAMSVH1ZbOImHmWB1dMLlI8QhPy+xFqk1dRNBrBkISzb/8GNY1y34fSuApv4781CSqJxWfN1zjnMKU8BLDectpcP70Yo/o5tQrpuIb2TMc/P61CW7u81fNyhSQJ26pqcbjJi945bhhUrCcQDElY/dUOhKXIb4aTR+XgnBHaHrSULP61oQZX/HUTPtxUi/ZAdA8cAGj1hfGvDTX4dHMdTumZDmcqLcSMxKEj7bj9ye34w1PbsXVvMyQZq+FPJBji+HpXE158vxzBIMfg0nQYDfKyMikQhBTW9v7xQ6LAEAhzrP9O3vQl44KrOehbqVFYSYsSAJk8qZml4PxhyBg9sZpFPLBwAFJifDa9LcWAUX1dePfLmv/OGWqppqUN26pqUZrthM2kziE8Wyqr8U1Ftaw2N80sQXEeHRh2Mo3eIG5+eAseXLUbrT713xuH6trxj4+rkO20oG+3+C0vrTfOgRXvHcS193+DrfuaNVlzFw5zfLmjAf/89BB6FTpQmB35aEDIHwCXkXyroTQvBS9+XI1ghNMeAACGnummlNVNAV+tdpElH0oAZEozptwFyKv7P2diISaO1Lb074lkO82YNCobm/c041CdvJP0lGgNBPH1wWp0y0xHekr06wLe2rYbdd7IhyBtFhF//mU/GEQafz6RvVWtmH3HBmz8Xt7CSrmCYY5/bahBc2sIpw1ygdGcwI8crG7D/Pu+xor3yhGIcrg/Ei1tIfzzk0OQOMfwPhkQIvh5hNr9Md0JAHRsYz7SHMTmfbLO/mAcMDUHfGu1iisZUQIgQ7f09HQpzJ4HQ8TjmqLA8MDCAUiz63csbZrdiLIzPehT5IDPH8bBap+mv9MhScK3FYf/P3v3HR9HcfYB/Dd7Vac79S5Zli333g22MQZTTC8JCQFCSwgtIQmQhEBIQggkvARCCS1AgFCDgdCLsQFjG3dbtmW5qFjl1HV30vWyu/P+IRwMWPbN3q6uzffzed/8wc1qbJ92n5155nlQkZOFfKvyevy9Xj/e3VnPNOaUucU4a5E2uQipYO1OBy6/ayu6XaFh+5k19QNo6Q7gpNmFEDRuL5ssNux24dI/b0VjO1uDq1hRABvrXKip78fJ84pgPErC5nDu/x+qunRwFYBtJ4RMsRh1T3jD4eHLWkxyPABgYNNZfgqCM1jGnH5sCX5w0gitphQ1QoAxFVacvagUPzhpBCaNtKEg24RgRIbLE1b958kyxa6OHlQX5io+IbCirgl2F9te4G8uGYdRpXz5/3DW7nTgx/ds0zwn5HD2tXrQ3B3AsnnFaZ8cuPzTdtzwwA74gtG3tlZba3cAa3Y4cMq8YliG2JqkkgQppP69IRo2ix4NHQE0dDAFIHqBCL3ucPALreaVangAED0hy5TxbwC5LIPuuXYKSvISqyd9plmHCSNtOHF2IX54aiUuXVaJuRPyUJRrgssdjjkT/CCZUuzu6MPE0nxYTWzJYP5wBK9u3c2UDFWUZ8IdV07ib5mHsX63E1fdsw2hyPDu5x5qf6sX4QjFwmna145IVH97aT/+8sJ+VZL8YtXjCuGTrb04/dgSWMzffhTIERFyJH49QSryTVi+todtECHj3OHAwxjeEgZJiwcAUarMzDuJEtzAMmbuxFz87DtMtYLiIsOkw+iyTCyeXoDLThuJ42cWglKg3u5lqs19OKIso66zD1PLi2A2RF93atWeZjT2srU0vvTUkThuevo+XIayo2EAV9y9FYFQ/B7+B23Z58KYcivGjVCvUmWyeODVBvzjDcYz7hpzeSJYv9uJsxeVfWs7QAqHQIfxBMA3FeUYsWGvG51OplWInGxDxjp3JNCo1bxSCQ8AopRlNv8BINNZxtxx5aSkzEYvyTPjpDlF+N4JFQABag+4YwoEQqKE/d1OzB5ZGtURQXcghJe31jK9JREC/PXaKci1xS/XIhH1eyP44Z1b4HDHZyn3cNbudOCsBSXIirFITTL559sHcN8rDfGexmH1uEKoO+DGmQtKv7Z6JvoDw54A+E25NgPe3+xgGyRQuMPB/2ozo9TCS3ZFoQxlFkrJeSxjSgvMWDJreMr+aqUoz4RbfzgeK+5fiKVzmNt1fk2Px4fXt+2J6rOr9jYzF0FZMCUPo0qVJxymIplS3PDADrT3qpPIRQiBoEKNB49fxE2P1Mb72TJsXvy4Dfe8uD/e0zii1TV9eOA/XyXcUlke9uN/h7Nkag5GFjFuocrk/MLCwvRbYlKArwBEIctqOI8AF7OM+fGZVTh2mAv/aCXbasDZC0tRWZyJDbVOxfvI3W4fLAYDKvOGbtTT6nLjrZp9zBt4d189hel8czp46LVGLP+0PaZr5GdasHRCFc6eMR5nThuLkyZUYVpFMTKMenT0exSvDHX0BTGyJBMTR6Z2jYBNe5z4+QM7ocazNC8zAzMrS3Dc2EosrK7AsaNHYFxxHnIyMzAQCCEYiS2pcOu+Acwan4PKYgvkSCSu+/8HETJY0OiLPQMMg2A0iHSnOxzYrd3MUgPPlopChTX/BYBGHQDoBILP/7EYpQWJlfynhpYuP35y73bUM9aKP0gnCLhm8azDBgGyLOPBTzeja4Dt2tPHZOO/dzO1ZUh5uw+4cd6tG6KuIf9NZoMep02pxryq8iHPi7sDIby/uwHbW7sU/YzCHCM+e/h4ZJhScyGytz+Ms37zBXpiPHJZXZiL48eOxLiS/CFv2BTA7o5erKhrRLdb+dHCgmwjPrp/ITKFCORw/AMAABjwiVjym20IRVi+y+RFu9dxiWaTShF8BeDodFnGjCcARL2+fMLMQlx8SvyP/mkhx2rAeceXYUf9ANp62JeWKaXY3+3AzMoSGPVf//q9V9uAug72Ql53/jg5cy20IskUV/3fdnQ5lT14ynNtuPq4WRhbdOTiPSaDHlPKimAxGrG/x8n8c/xBCQXZJswYm3qtmyWZ4if/tw37WpUFygCQlWHCBbMn4fQpY1BgtRzxbY0AKLJlYn5VGXSCgOa+fkVp8P6QBK9fwuKJibOCbjYK2NvmR2Mn0/2mwh0O3A8g/vsYCSw1Q28VjbDlLgDAlFr+vRMrNJpNYrCa9Xj6ltlYMlNZjsNAIISXN9dCPmQTeHtrF9bUtzJfa+wIK5bO5nX/D/XCR22obVLWCnpqeRGuP34Oci3Rb6csrK7AxfOmRFVZ7puefPcAxGGogjfcHlreiA272U6xHGpCSQF+uXQ+ppazfbcFQcDSCaPw4+NmMh+9PeiVVXbUHlAeuGjhrPnM95q8SlsuXxY8Ch4AHA0lS1g+nmnW4YQkT/6Lhsko4JEbZ2LGGGVvbw09LrxVsx+UUmxqbsfyrXWKrvPL741J+8Iyh/KHJDzyhrITUDNGlOCieVOgU5DoN7W8CKdNZj/y2tkXxOqdfczjEtneFg8ee+uA4vEnjq/C5QumwxJDP43RBbm4evFsZGWYmMfKlOLe11sU/2wtHDc5G2bGTqqUCks0mUwK4QHA0S1m+fAxk/PTph96hknAk7fMQlWJsuz7DQfs+PP7a/H6tr2QFKSEL5iSh2Vx6rGQqJ79oBV9A+xH/sYU5eJ7sycqeos/aPG4kZhewf7v8dYaZTkEiUiSKX77xG5FqxoEwJlTx+LUydWqJGcV2Sz4yXGzkGlkXwnYtN+DmqbEWQUwGgTMGZfFNEYGZbp3p6P0eFIpNBswUIBpGWnh1PQqRJOfZcS/bp0NmyX6Ij+H8iosNarXC7j9cqaOzCkvGJbx1Nvsb545FjMunjdV0Zv/N509fRxMerbvwqdbe1JmG+DFFW3Y0cCQsX6IM6aOxXFjK1WdT6HVgkuPVfZv++QHHarOJVYLJ7KtNhKKBbOB9Ck2oQAPAI6gKzNnEgCmbJh0rERXVWLB/T+bOqxL8defNwrjK1P7CBmrd7/oZC7jLBCCi+ZNiWm5+VBWkxFLxo9kGuMLSqht9qjy8+PJF5Twj9eVbb8sHjdS9Yf/QVX5OTh18mjmcat39bNW4dPUsRPZVgBAkPnlPZwbAg8Ajkg3g+XTJflmVJenZzb60tlF+NGZVcPysyZVZeH689hvaKnupRVtzGMWVFdg5BHqMiixsLoCeh3brWXLHuUJc4nimfdaFG2/TCgpwOlTxmgwo68sHlOJqvwcpjEypXh/S+LkZ4wts6AwmzVQ1TFVb003PAA4AkGgTF+eYycz9QlKOb++aBzmT9K2+JHVrMcDN0yFPk3yLKLVYPeihnHp2WY24hQFiXtHY9LrMa6I7XtwoDO5O7j2eyN46p1m5nHZGSZ8b85EzQuyEEJwzvRxRzzWeTjvbWQsw6shQoC549lWAQSBMr3EpRt+Fz0CSjGZ5fNj07DByaH0OoKHfzkdxXnsmcfREAjB338xFWMq0vvv+XBWbWOvn7B0wiiYdNqUAplQwnYSpq0nuQOAFz9ug9vPtv1CAFw4d7KiJD0lynJszMcK97X70TeQGAWBAGAsY7lv1nt4uuEBwBFRpnXmseV8T7og24iHfj5d9Td0QoDfXzEBS2fxM/+Hs3o7WwBgNRkxd2SZRrMZLFvLYsCXOA8ZVpJM8cpKO/O4uVVlGF0wvKuGS8ax5WdQCmyuV1ZTQgujSpirq47SYh6pggcAQ9MBhCkrp7oiPff/v2nuxFzcd52ywjBD+dVFY3HpMm2SpJJdICRjyz625f95o8qY9+lZWE1se7URMXk7A322rY+54ZLVZMTpU7Xd9z+c8hwbynLYXlS2NSZOgmZ1KXO/jyrwirdD4gHAEMoy8soARL02ZzQIqCjkzWgOOmtRKe66ehJ0QmxBgNko4N7rpuCac3jS31CaOrzMx+hmjijVaDaD3AG2ZDg1g8Xh9vJK9uTLpRNGIcMQnxNqk0vZOns2dwc1mgm7ykIT9Dqm74qhLCO3XKv5JDseAAxBTwSmteaRJRbWL2bK+/6JFXj85pnIVtj3fVSpBa/9eT6+s4T//h5Jg52tYEuh1YIim7atk3s8bA1pCnOGZx9cbd6giDU72RLlcixmzKvSbvvlaKoL2U4D2Htja2akJoNeQEUBW46Rjuj4vuEQeAAwBJnITGFyYXZy3sC0tnROIT742wKcMq8o6joBOVYDbrt0Aj68byEmVTGe/U1DrBn0I/O1bb5DKcXW1k6mMcV5ydk5c90OByKMqy+Lx47UdPvlaIqz2JJou2LsZqi2PBvbCwUlcurXZldIWfm2tEDzWbolW8z8r3IoJflmPH7zTOxt8eD11e34bHsfGtu//oZYkG3E7Am5OOOYYpwwuwiZZr5tF61AWGL6fKHGb/9fNNrRydjSecqo5EygXbWVLfnSoBMwqzK+5astRgN0ggBJji5wCSdYfoY1g/XeQHkAMAT+1BoCJbCyLOjbLPyBdTQTRtpw26UTcNulgCjKcLgjCIsSinLMMDE2+uC+IstsN2gzY6leFvu6HHhvVz3zuJnj2JalE8UXtWzL/9PKi+O2938oPSGINmykFBAlmjBbnJkmtnstJWzVXNMJDwCGQCCYwNBROzMj/r/UyUSvFzSrF5BuJMYAwBPUprzr+iY73tlZz9zYqazAjIlVybcC4PZH0NHHliDHeg5fC5IsIyxFv2qkE0hCddy0Mq4OEkr4jWYIPAAYAqHUSBm+9Fa+BcDFSY6VLf9ke1sXFo+rZG7aM5Qejx/v7tqPfV3KqsadvbAsKU8B1NvZEh31OgHVRfGvFtrj8TG82gC5Nn3Mp3nUZGHdAhBociaYDAP+1BoCFagAhghAz3cAuDgZWcx2/NThC+CJNdtwwayJKM1W/ubd6hzAukY7drb3QI5yP/mb9HoBF59SoXgO8VTfxpbnUJplhVGjyossGnrY+i4kWoKzkXErgkKI/196guIBwBCoTCIsLyX+EFsiFsepZdoY9v3zdpcHD67ahDFFeZg+ohhjCvOQaznyi1JYktDiGEB9txO7O3vQ52UrfnM431lchvIkrZ/R3sP2548l2FILpRSbmtna/I4tS6x/H1+Q7V4ryDSxjjEkEB4ADEEgNEQZTgF4AzwA4OJjVKkFI4oszPX0KYD6Hifqe5wABrPDC6wW2MxGmPQ6CERAWBThj0Tg8AbQ7w8yLR0fTY7VgJt+MFbFKw6vAb/I9PnsjPhvRW9r62Ku0TB9VGLl0HkZAwBKCA8AhsADgKEQwnS38wbYbgYcp6azF5bgkf82xXQNfziCVidbSeFY/P7yCShIsOVlFpLEFg4Z43j2HwBc/gDe3rGfedysMfFfuTgU6woACF8BGAo/ezUk4mT5tI8HAFwc/fDUShgNyfPrfMmplTh3cfyq4anBaGDbiw5E4neP8IbC+Ne6GgQZ5zC6xIzxFdrWjWDFHABQkjg9jRNM8twxhhmB3MfyeQ/jciDHqakoz4TrzkuOfglL5xTi95eNj/c0YsZ6+qJrgG3pXS2dA17849Mt6PGwt1w+az5b34Dh4GENACDxAGAIPAAYggiBKQBo7U7ufuZc8rv23FEYX5lYy7XfdNKcIjzyyxmqt4uOh/JCttNl+3sdcAeGbzWaAtja2olHP9sCl589YdNsFPDdRYkXALT1sP0dCoz38nSS/L+FGomYBaYG330DYbg82hRY4bhoGPQCHv7FNORnJd6+OiHAFaePxGM3z0iqrYojmVDJ1qdClGS8uHEX8zK8Eu39Hjy+eite3VLHVPTnUN87rgj5WYlV4KxvIAI342qr3kCZ7uXpJDV+EzXQ29vrBQhToe/Gjvgs8XHcQWMqrHj+9jnItSVOEFCQbcQ/fzULt18+IaEKysRqQmUmc8+KZucAHli1EY29bGfxo9XY68KzX+zAw59sQrOjX/F1sjP1uGpZ4uVoNLG3JnY0uVzDl9maZHiBhCPIMmR8FwRR96KdNT4HU0bx7nVcfBXkmLB0diE27emHYyC+q1JnLCjB07+dhckp+HshCAR7mj2oZ2zHHIyI2Nraicbefpj0OuRlZsQUGHUNeLGhuR1vbNuLNQ2t6PPGvh35h4tHJVz2PwCsqe3H6l0MgQ3Bbnc48KR2M0pu/BjgkQhkPyidF+3HGxhLg3KcVsZUWPHm3cfgLy/swwsftUFmrM8fq0XT8nHjhWMxY4y2rYfj7ZzjSvHe+i5FYw/0uXCgzwWDTkBVQQ5GF+SiyJaJIpsFWWYTzIav357DkgRvMIxejx+9Xj/a+z2o73Go3tvh5Jm5OOeYxGyg19TFmMtACXtnqjTCA4AjIDLdQQkuifbzOxv5ShOXOExGAX+8ciIuPnkE7n+1ASs2dUPLOECvF3DynEJcuqwS8yflafeDEsiJswsxssSCli7lb90RSUZ9txP13d8+eWzS6yEQgkAkEss0o1ZdmoG7r6hOqOY/h6ptZnzJIvIObWaSGngAcAQSSI3AUA1o+/5+eAMirBn8r5VLHGNHWPHYTTPQYPfi9c868Na6TnQ5mPdSD4sQYGp1FpbNL8Z3jq9AYU7i5B4MB4EQ3PT9MbjhwZ2aXD8kDt/x4tI8Ix7/2XjmdrvDxRMQUdvCFgAQmdRoNJ2UkKBxXmIos9kKBGroAcPf05O/mYmls+Pf8pPjhiJTih0NA9i0x4XNdS7sahpAb390y8hmo4BRZZkYX2nDsZPzcNy0fJTkp3ezNUqBy+7agrU7k/e4eWmeCc/eOAEjGI82DqePt7vw88fZKhkaqL7kgK+nW6MpJT0eABxFhTVvD4AJ0X7+stMq8YcrJmo4I45Tny8oobXLj57+EHwBEb6gBFGSYcvQIyNDB6tZj4rCDJQWmJOyda/WelwhnH3LevS4kq/q7KRKCx69fgKKchLryN83/enFZrzyOdOzvN7udY7Taj6pgK9VH93nYAgAkvktgEtfmWYdJlbZMBGJl/mdDIpyTXj6lln4wR83J1VfkHOPLcDtF41ChjHxT4SvrWPMsaL4XJuZpI7E/1ePN0qZvkSN7b6YEoI4jktOk0dl4cXfz0VeAtVgGEpOph73/qgad19enRQP/6auIOx9bHkrFGSNRtNJGYn/Lx9nEWL8GIDMMua1T9s1mg3HcYlsanUW3r7nWMydmBvvqRyWTiA499gCvHvHNJwxLzGP+h3Of9cx1WQDAEpkrNRiLqmEb+ZFocKatx7AMdF+vjDHiHWPHp8S9c45jmMnyRSPvNGEf7zRBFFken/QhEAITp2dh+vPqsDoksRN9DscUaJY+tvt6B1gOApJsMXucc7VblapITHPeyQYm8lSTICl0X7eH5QwrToHo8sytZwWx3EJSiAE8yfl4dzjSuHxi9jf6tW0BsNQzEYBZy8owl2XjsJFJxQj15p8aV+f7OzH62uZVwCedIcDn2kwnZTCA4Ao2EyWXgL8lGWMPyjh7EWlWk2J47gkkJ1pwClzi3HmghJQSmHvCSIQVtach8XkUVm47rzRuO9nU3HarDzkZSbvauTfXmtDcw9j3QpKf+6OBPnxv6PgWwBRqrDlbQbFnGg/r9cRrH54MUoLkmu5jeM47YiijNU7+vD++i5srHOhgzGxbSgWkw6zJ+RgycxCnDK3COWFGf/7bxGfD1J4eCoJqq3TGcYpt9VAkpmWT2rtXudUreaUSpJvPShOqIwXCYk+ABAliuc+bMUtl/BjqBzHDdLrBSydXfS/YmEdfUFsqnOi3u5Da7cfLd1+dPYF4faLiHwjdyDDJCDTrEe21YDq8kxUl1lRXZ6JsRVWTKyyQa87/PscZXt4JpQXPu1iffgDhL6gzWxSD18BiFKxtbjIgEgbgKjP+Ngseqx77HheGpjjOGaSTP9XU8CaoVfcMTA04AaV45+IyMoXlHDCLdvhDTBtmUiyhFEdAWebVvNKJcm7MTTMur3dPQBZzjLG4xfxn1V2rabEcVwK0wkE2ZkGZGcaYmoXHJfsQxUsX9PD+vAHgLf5wz96PABgQAl9hHXM0++1JMQxII7j0hCloEkYAIgSxfOfsOfwyZQ8qsF0UhYPABi0e5zrQbCFZUyXI4j3N/BkVI7jhl8yPvwB4KOtDnQ6mfsq7O3wOVZpMZ9UxQMARkSm97OOeeLtA8m6CsdxXBJLxr1/AHjm4072QQR/Bxj6t3M8AGDV5nO9CqCJZcyeZg/W73ZqNCOO47ghJOEJgPV73ahrZe6n0gOP5Xkt5pPKeADATqIU/2Ad9PS7zRpMheM4bmiUJt8KwLNK3v6BR+ywB9SeS6rjAYACoQzhKQD9LGM+296L+javRjPiOI77tmSrAdDUFcTa3Uy3VgDwyyTCk/8U4AGAAn19fR5Q8k+WMZQOngjgOI4bLsmWA/CvjzqY86UoyLMdHk+fNjNKbTwAUErGQwDCLEPeXNOBHhdzZivHcZwiyRQAONwRvLeZ+TkuU4KHtZhPOuABgEL2gKOdEPoKy5hwRMaLK3iNCo7jhkcyBQAvfdaNUIR1y4K+3eFx7NVkQmmABwAxoDL+BsZjJ//5xM4LA3EcpzlKadIEAKJE8fq6HuZxMsHfNJhO2uABQAzsPtcuAB+zjOlxhfDJNr5dxXGctqgoxnsKUVu1w4WefsaOhQSbOzyuddrMKD3wACBGhOI+1jEvreTbABzHaUuWkuPtHwCWf66gWirFPerPJL3wACBGbT7nCgA1LGPW7OhDSxdzoQuO47ioJcsKQFtvEBv2etgGURywe51vajOj9MEDABUQgodYPk8p8OYaRcUuOI7joiInSQDw5vo+yOy10h8EwNwqkPs6HgCogHosrwBwsYz5eDN7wgvHcVw0ZElKmkZAK7cz3ToBIACdyMv+qoAHACoYLEFJX2AZU9fshr2HbwNwHKc+OcyYUBcnbb1B1Hew3QcpxX/sbjdvrqICHgCoRILwGBiPBK7Y3KvRbDiOS2fJsvy/qob57R/Q4Qn1Z5Ke9Izcr0kAACAASURBVPGeQKro9Dr2VNjytoBibrRjVm7pxpVnjNRyWmlBkin2NHvQYPeisd2Hxo7B/wuEZHh8g29CwYgEg05Ars2I0nwzRpVaMGGkDbPH52JilRU6gcT5T8FxKpHlpAkAPtnBXPd/b7vbuUGLuaQjHgCoiIK8SUCjDgC27O2HPyTBYtJpOa2U1OMMYfWOPqyu6cO6nQ4M+I6+5BmCDG9ARFuPH5v2fLWCmGcz4qS5RTjnuFIcOzlPy2lznObEMFOF8rjxh2TUNLFm/xOe+a8iHgCoSEfpWzJwV7SfFyWKnQ1uHDM5V8tppYxQWMZ767vw0sdt2F7fz9w0ZChOTxivfmLHq5/YMXaEFZefVokLlpRDr+c7ZFzykZJk/3/HAS9EifGXWAceAKiIv3qqaCAc6M0yZlwEID/aMaPKMzF3Ag8AjqSly4/H3mzCTf+oxdtrO9HpCGr2s5zuMD7Z2ot31nWhMMeEsSOsmv0sjlObLEmQgtr9fqjpvU192LjPzTKkw+5x3qTVfNIRXwFQHf0IIOOi/fT2fcx7YGmj2xnCQ681YvmndvY3hRg1d/nx07/vwPGftuPun0xGaYF5WH8+xykhhZKn2+iOJi/T5ynFR2BMtOaOjK9xqowAX7B8ftt+9ZayU4XbH8H/vViPE274HC+vbBv2h/+hVtf0YdnN6/DhRgWlSjluGFFZhpwk+/+UsgcARACv+68yHgCoTBTpepbPuzxhTZe0k81rn7VjyU/X4PG3mhAMJ0Ytc49fxPX31+Del+ohyTxa4xKTFA4nzctEpzOEfh/bSQWBguneyh0dDwBU1hnsbwHQzjKmpZsXBOobCOPqe7fj14/Wot+beElMlAKPvdmE6+6rQTiSGIEJxx1EKYUUTJ7l/+Ye5rn2t3qde7WYSzrjAYAGKOhWls+ne2OgjzZ247Sb1iVFeeSPN/fg6nu3J8zqBMcBg3v/yVL6FwDsfWyrngTYAoD/0qmMBwBaIKSe5eOtXQGtZpLQRFHG7U/W4dr7auBwJ8feJTCYF3DDAzv4dgCXEJLt7R8AWnvYAgAZbPdULjo8ANCAQGkjy+dbun1aTSVhDfgiuOIvW/Hix23xnooiK7f04PYn6+I9DY6DFAwm1ds/MNgDgAXrPZWLDg8ANEAoaWD5fFuaNQVq6fLju7/biHW7krufxyur7EkbwHCpgUoSxFDyrJ4d1O5gW7GgAmnSaCppjdcB0ADVS02Qoq+x1O1MruW7WOxsGMBld22NqnQvq1yLGaMKcjAyPwdFNgsKrZnIMOih1wkQJRn+cAQDwRCa+/rR2OtCfa8TohTbtuKdz+7F1FFZmDYmW6U/BcdFL+IPIGlS/w/RM8D2+09liQcAGuAdUDRQhSqzaHVHvbEvEIK9L50MvS61/znqmt24+I4tqj78cyxmzBpRgmkVRSjNtjGNdQdCWF3fgo3N7YiIygOB6vJMvHvPApiMfEGNGz5SKIyIP/lWD0WJYuZPNzPl0FASKWj3eBwaTistpfYTJ44qrHlOAFHX+N3w+BIU5Zk0nFF87W/z4qI/bobTo85yZVV+Do4bW4lJpQUQSGxfY3cghP9s3Y2GHgWtSb907bmj8auLxsY0D46LFpUkhD3epNv7B4Du/jBO+M12liFhu9dpBq8CqDr+yqKdTpYP9/Sn7jZAc5cfl/xJnYf/iNws/HjRTFx7/GxMKSuM+eEPAFkZJvx44Uwsm1INncLrPfVuc9of5+SGTyQQSMqHPwD09TOuABJ0gj/8NcEDAO0wBQDd/alZDdAXlHD1vdvRNxDbw99iNOCsaeNw/ZI5GFukfsteQghOGFeFHx47DXod+69FRJRx78v8pBKnPTEQhBxhq6KXSHpYj/xStnspFz0eAGiFELYVgBRNBLzlsVrUt7HV/P6mqeVF+NUpx2LRmBEgKrzxH8nEkgJcMm+qoiDggw1d2NfK2N+c4xhIkQjEJOn2N5RexgRAML5McdHjAYBWZHSwfLzHlXxHeY7m6Xeb8d76LsXjDXoBF8yehEvmT4XFaFBxZkc2sbQA580YzzyOUuCpd1s0mBHHfXnkz5f820ysAQAF28sUFz0eAGiEgjJ9aXtTLAegtsmDe17cr3h8doYJ1y6egzkjS1WcVfTmjCzD/FHlzOPeWdepWqIjxx1EZRlhry9p9/0PxbodKPAVAM3wAEAjAmHMAXAl97LeoWRK8funditu4zsiNws/O2EeynPYjvWp7exp41Bky2QaE47I+Ii3DuZURClFxOsDlVOjFH5PP1sAQAnbyxQXPR4AaEZO2xWAV1baUdMwoGhsVX4OrjpuFmxmo8qzYqfXCTh7+jjmce99oXzbg+O+SfT5IEtSvKehmh43Yw6ARJm2U7no8QBAI1QwsCUBpkgOQN9AGPe+pCwbvio/B1cunAGTPvoqilobW5SHSaUFTGO27Ovn3QI5VUS8PkhJnPF/OKzHAPkKgHZ4AKCRSIbAFLX29Ycgp8D+3lPvNCuq9Fdky8QVC6Yn1MP/oMVjK5k+H47I2F7fr9FsuHQwuOzvhRRRv2R2PMmUwuFh+zMZYeQBgEZ4AKCR7u5uHwB3tJ8XJYo+xr2xROMNiHh5JXtznAyDAZcdOx1mQ2K2phhVkMucC7CnmR8H5JQ5uOefam/+ANA3ILLmBokHfD19Ws0n3fEAQFtMqwD23qjbBySklz+2w+Nnu2kRAD+YOxkF1gxtJqWSiSVs2wAtXenX4pmL3cESv7KYeg9/AGjqYr7HdQNInQSIBMMDAG0xHQrvSOIAQJQonvmA/Qz83KoyjC/J12BG6irLsTJ9vitFCztx2pEi4mB9/xRK+Pum5m62exwFDmg0FQ68HbCmCNDMstjV2JG8b41b9vajy8F2lDErw4QzpiZHA528TLYVili6C3LpRwwEk77CXzRYVwAIoTwA0BAPADRECW0Gjb50bV0S7xuv2sp+9v3kiaMTdt//mwJhtiVZhk6nXDqTZYR9/pRd8v+mA91sQQ6lpFmbmXAADwA0RaCro4j+TXBPS2w18+Np5ZZeps/nZWZgTmWJRrNRX21HD9Pn87LiX8eAS2xyOIKI358S1f2i1dTJFgAIoHUaTYUDDwA0pdOJO0Ux+jQLe48f7b0BlBcmdkLcNzV1+Jhb4S4aUwlBSPwUFG8ojHd21qOmja24T3GOSaMZpQ+HOwzHQBjhiAyAIC/LgMIcIwz6xP/eHAmlFGIgACmU3Kd+WHU4QuhkzI0RIezQaDoceACgqeb+/pYKa14/gJxox6zf7cR3l7DXoI+nvS1sWxc6QjC9okij2aiDUoqNzR34sLYRAQVnsadWZ2kwq9QlU4qa+gGs3NyLzXuc2NvqgS/47WQ4vV5AdVkmJoy0YeHUPCydXYhcW/KstsiiiIjPnzJlfVl8sYe1OigJdXodvMe2hngAoC0KYBuAE6MdsHanI+kCgKYOtrf/UYU5sJoS96bd7BzAOzv2we5SlpNBCDB3Yp7Ks0pNDXYvnv2gFSs2dUfVJEYUZexr9WBfqwdvremAXkdwzOQ8XLZsJE6YXQBB43bRsRCDQYjB0GDbyDS0YW/UZVEGUVoDID2SI+KEBwAao8A6whAAfLHLAUoHHyLJgvX0QmVetkYziY0/HMG7u/ZjW0sXYrlFz5+Ui8KcxA1wEsGuRjce+W8jVm7ujakCpihRrN3pwNqdDowuy8R1543GeYvLEur3h8oyImmU6Hc4lAIb9zKuAAhYo81suIN4AKAxgWItw0EA9A2Esb/Ng/GV8e2Ex6KVcf+/LDvx/mw77N14e8c+eEOxl169+GS20sHppLc/jD88XYcPNeiY2NThw82P7MLLH7fhjh9PxKSq+G/DyOEwIv5AWiX6Hc5euw8OD2uRMIEHABpL7myaJBDIENYDYMr20eLmqCVvkO0XOzsjcRLkQqKIlzbV4qVNtao8/KeMtuG0Y4tVmFlqoRR47bN2nPLLtZp/v7fu78c5t2zAg8sbIcXpPCalFGGfD2FfemX5D2XldhfrEImS8Fot5sJ9hQcAGuvr6/MAbEtZr37aHrcblxKRCFtCk4DEWJ/t6PfgoU82YYddnQeSQS/gzh9PTuh96Hjo90Zw5V+24teP1ipqFKWEJFM8uLwBl9+1JarcAjX9r5xvOLUa+SglU4o31zOX899od7udWsyH+woPAIYBpXiP5fOdfUGsr02e777ZxNbBT6Txz4De0tKBR1dvQZ9XvfLLt182HtPHJGZ+Q7y0dPlxwe0bsbomPv1c1u1y4tzfrkfTMFXZlMPhlC/ny2p9nZv5+B8BeV+j6XCH4AHAMCA63busY5Z/1q7FVDSRnWlg+rzDF7+eBxTAR7sbsXzrHkQkdQIRQoBfXzwWl5zK9/4PtXanA+f+dgMa2+Nb4rqjL4jv/m6j5i2axUCAL/kfxhtfsBUJAwCZSkwvTZwyPAAYBnZ3bz0B3cYyZsWm7mFbLo3V6DK2Vrnt/fEpeSxRite37sEn+5pVu2Z2pgH//NUsXHPOaNWumQo+2NCNK/+yNWG+w/3eCC7781bsPsB4FC1KEZ9/8Igf9zUDPhGrdrDu/9OGdl9/jSYT4r6GBwDDhZKXWD4eCst4eWWbVrNRVXU5WwBQ1zH8y8ERScbzG3ZicwtTh+YjmjUuB+/ccwyWzilU7ZqpYM0OB3758E7Wvu+a8wZEXH7XVjQznlo5mrDPDymcXlX9ovWfNT1fVnJkQV7QZDLct/AAYJhQmbwCMDQGAPDk2y3MGfbxMIYxAHD5A2h1afMmdjiiJOPZ9TXY06lO4JFnM+Iv10zGq3fOQ0WRRZVrpoovap34yb3bFNz0h4fDHcaP/rIVbn/sKxOUUoS9Xsj84X9YvqCEZ1Z0sg8UdC+qPxvucHgAMEzsAUc7KD5gGePyhPHse61aTUk1U6uzoNexZb6vrR+eP5csy3hxYy0aepiPIX2LXkdwyamVWPngInz/xAqe7f8NtU1uXP1/2xAKq/fwt5qMKM7KRJEtE3qdOrerA51+3PLY7pivI3p9kCOJH6DHy3MruzDgY/37oZ/a3b0NmkyI+xZeCGgYUR19jMjkDJYxT73TjB8uG8GcaDeccm1GzJmQgw27o3/I1rb3oMfjQ5GNbfWAhUwpXt5Sh7ou9iSkb5o3MQ9/+vFEjBthVWFmqWfAF8G199Uctn4/qzGFuZg1shRjC/OQdUjNCFmW0epyY3tbN7a2diAiKg80PtzYjRdXtOLiU5QlboZ9vrSu7Hc03oCEf69ia6AFABTkMQ2mww2B7fwWFxNPKNiYZci4FAS50Y4JRWSYDAKOmZzYteXdfhGfMxz1ogB6vT7MrizVbE5v1uzH1lYFS5CHsGbocfvl43HHjyahIJuX9z0cSoGf3b8TOxpZm7183diiPPxw/lQsGV+FsmwbTIavv58QQpBjMWNiSQHmVZUjLEoxJZR+UevEWQtKkWNlC65Ff4Dv+R/FPz/swNrdzN+HzhKv85pOxq1STjkeAAwvmmXMAAiWsQza2TiAMxXcqIZTUY4Jz33QylRD3+kLIi8zQ5PSwBua7Fi590BM15g2Jgsv/WEuFk4rSKja8onmsbcO4MUVyrd0LEYDvjd7Ek6bMgY2c3RVIo16HSaWFmB0QR729zgQFtlXHiSJoqXLj3OOK4t6jBgMQQyy9bRPNx2OEH7zr0ZEGJNAKSF/3RcOrNZoWtxh8ABgmFkjubuIUbwKQNRr36JEsa/Vg/OPL0/YB1FWpgG1B9zMBVfqu52YXF6oanfAZucAXtq0O6bz2D84aQQevXEGcpKo1Ww8bK/vx00P71Lc4K4yNwtXHTcLI/Oj7pj9NbmZZsyoKEGTwwVPkP2tvLnLj0lVWVGdZJFFERF//GpYJANKgV8+2YADXcxBktugly/uD/LoajjxAGCYeeCJZBstJjB0CAQAe28QJflmTBkd/wYnQykrzMDyT9gKGEmUorHXhRkjimHQxf519ATD+Ofn2xBSuD+rEwjuvnoybvhuNXRCgkZbCUIUZfz4nu3o7Vd2/n1yWSGuWDADFlNsK1smgx7TK4rR3NeP/gD7XPa0eHDJqSNAjhBdD2b8+9K2lW+0lq/twQsK9v4J6H2t7n5e/W+Y8VMAcWAy0ocBwpyZ9pfn96GbsaTmcJo9LgdzJ0ad3vA/PR4fnlu/M+bKfBTA8m118IaU7c+ajQIeu3kGvn9iRUzzSBdPvN2Mfa3K9uBnjyzBxfOnqpbZbzbocfnC6YqSShvbffh4U88RPxPx+QCZb00fSZcrjL+9rmgraEAi4t/Vng93dHwFIA6cgUAoy2gJAjiNZVw4IqOpw4ezFpYc8W0lnkaWZOD11ezFdvoDQRxwDGBKWaHih8KGJjvWNSgrnmTN0OPZ22Zj0bQCRePTTVuPHz97YAckBcV+JpcV4sK5U6BT+Tts0OkwsTQfW1u6IDI+rNt6/bhw6YjD/jcxEORJf0dBKXDzUw1o6GDfIqGE3Nnh6f9Ig2lxR8EDgDgZEQ7UhIzmHwCEKb2/uXOwilmingooL8yAvTeIPc3sb4b9/iDqe5yYUFIAs4HthKrTF8C/N+6ErKCLYoZJwDO/na1o9SJd/emZPahtYv83rsrPwWXHTode0GbxMcNgQKHNwtzhsdsZwilzi1GY8/UkxMF9f3UrB6aiR9614/W1io7bdlCv+WIPPIlRMzrN8AAgTnoBKUuf0QBCLmYdu2mPC2MqrAl7Jn3uhBy89mkHAmH2zGxPMIxtrV0ozbYi3xp9lb0XN9ei18N+ozboBTx60wwsnJbPPDZd1bd58fun9zBvh1tNBly1aBYsRm1PsxTZMtHr8aPbzZaQasvQY9Eh3wNKKSJ83/+oVtW4cOfLzcoGU3pde6R3q5rz4aLHA4A4ckeCDVlG80yATGAd+3lNH5bOLkRBdnTHpoZThkmHknwzPtzI9hZ2UESSUGPvhicYxsj87KMmB25t6cQaBZUFCQEeuGEaTplXrGie6ep3T9Wh3u5lGkMIwWXHTEdpzvAErSPzsrHhgB0yw8O7vS+IK8+o+t9Jm4g/AMqL/RxRY2cA1/xjH8KikiCJrLb7nDepPikuajwJMM5kCTcAYLubYrDO9k/+rwZOT2LuTZ69qBQXnXz4PdVoUEqx4YAd965Yjw0H7BCHSBD0BMN4Z2e9op9x7TmjcMaCEsVzTEet3f6jJswdzqIxIzCmaPi2WLIyTJg/qpxpTJcjiMYvj7FKoTCv8X8ULm8E1/5jv8LqjyQkE3I1wFQ6hFMZXwGIM48YHLAZzS4CcibrWLcvgjU7HTjtmGJkmBLvn3LRtHx8VtOHHpfykwsRScbeLgc2HGiHNxSGyaBHptEInUAgyTJe2lyLLjdz/ITFMwrw12unJGwyZaJ69M0mbN3XzzQm15KBS46ZCp1G+/5DKbJlYl2jnWnMuEorplZZEfHxff8jcftFXPXQPjQqSPoDABB6W7vH+ba6s+JY8btfYiAVtrx3QXG6ksHV5Zl46Q/zUJiTeEVrOvqC+O7tG9HlUK++h44QWEwGBCOioqOD2ZkGfHTfQhTlJd72SSILhWUsuHY1XIyrTlcsmI4JJfE5XfHU2u2o73FG/flzF5fhr5dVQVZQWTBduP0irnxgL+pa2HIsDvGF3etcDID/JccZ3wJIDJRIwlUAFPWrbWz34dI/b4HDnXhLlmUFZrz0h7mq1tGXKIUnGFZcN+D2yyfwh78CH27sYn74jy7MidvDHwDzzz5g9/CH/xE4PRFc+rc9sTz8PUQnXQr+8E8IPABIEG3+vg5CcQkUNsLY1+rBxXdsjmm5XStVJRY8fcts2Czxbz554qxCnH989LXfua98vIX9mNepk6o1mEn0RhewlRhu6+WVaIfSNxDBFffvxf52xdsjlAI/ahsYaFRzXpxyPABIIG0+50cA/qR0/P42L87+7Xps28+2RzscplZn4eU/zo3rNkWWxYC7fjI5bj8/mYmijDU72BaoRhXkokphjX+1FNkyITDkeTg9EYQjvOLfN+1v9+PCe3ajvkN5bgQheKDd61yu4rS4GPEAIMHYvc47CSXvKB3f4wzhojs245VVbMlPw2FSVRZe//N8jCqN/ny/mm67bDyK+dK/Ihv39MPjZzsSd8yo+K+06HUCTHq2lSfWLnapbmWNCxffU4cORyyri/SzIo/zN6pNilMFDwASjyz5TBeCYpPSC4QjMm59Yjdu+2cdImJivc1UFFnw2p/n44RZhcP6cxdMycN3l7AdC+O+sqHWwfR5i9GAKWVFGs2GjV7HluscTrDfmXgRJYpH3rHjF4/XwxeKZcueNMpEvGArwKv9JRgeACSgDnT4CRXOA6CssP2XXl7Zhu//fhNauxPrSFOuzYgnfzMTN104dlg67hXlmXD/T6clbCvlZLC3ja3s7/iSfNUa/cSCAvCH2VYujPr4zzve7H1B/PDeOjzybjtTMaXD6IMgLOvweBQlOHPa4t/0BNXm7+uAoFsKgL235iFqGgZw5q/W4+WVMcUSqhMIwfXnj8Zbfz0Gs8Zpt09sMgp4/OaZPOs/RvVtbFnfE4oTo7SywxuAxNAYyGwUkGlOvJoaw+nDrU5858+7seMAe32Nb3ATmZxud/c2qDEvTn08AEhgdndvPSg9BUD0B5kPwxsUcds/63DdfTXo9ybWKtykqiy8euc83H31ZORY1a0RbzQIeOBn0zBjTLaq1003gZAMew9bwZeR+Ynxd97Yy/arU6jicdVk4wtKuOWZRtz4z3p4AjGXQPYTyGe1+R2b1Zgbpw0eACQ4u8+1i8hkGWIMAgDgw43dOOs367F5j0uFmalHIAQXLq3AqgcX4RffG6PKSYGyAjOe/90cnDqf1/mPVUdfgGkZ2KTXI8eSoeGMore5ma019ZhSs0YzSWw1TV6c+6ddeHuDKiv1XkA4o83b/7kaF+O0k95rXUnCHQl0ZBot7wjAuQCyYrmWxy/ijdUd6PeFsWBK/rDswUcrw6TD/El5uPy0kagqyUSXK4huJ1vmcaZZh6vOrMLfb5iOUWWZGs00vbR0+/HqJ+1Rfz4/04wF1cr7QKilrrMPnzM2iTp3QSFmj7FpNKPEI8kU/1rRiVueacSAT5XGR/2UYFm717FWjYtx2op/ZRYuKp1ex56KrMIlkKWPAIyO5VoypXj2/VbsqHfj7zdMRWVxfI7lDcWgF3D+8WU4//gytPcG8Om2XmzZ14/aJjfaegLfOtlQWWzB1OosnDCzEKfML4LVzL/WahIZO70Z9fF/r/CGwnhj+x7mcbOqE7PFthY6HCH8+l+N2NbAluB5pEuC0mXtXtcutS7IaStxXv+4qJTbbPmEGl8H6PFqXM9q1uO3l47DD06K/xtbNGRK4fGLcPsisJj1yM40MB/z4tjsaBjAebduiPrz+ZkZ+PWpCzSc0ZGFJQlPrtmOVucA07iiHANW/WVmQq2KaWXFNif+8MIBtd76AWCnLNGzOgIu9r7cXNzwHIAk0+7xOMxex6kg9Hk1rncwQfCGB3fCG0z83ucCIcjONGBEkQX5WUb+8B8GuTa25MyBYAghKT6l3gcCITy+eivzwx8ATptbkPIP/0BYxq3PNuIXT9Sr+PCnb0YyDQv4wz/58AAgCTUAIbvHdSml5DIACvtxft276zpxzm/WY39bzEd/uBRTnGtmKqcrSjJ22Xs0nNHhNfa68PCnm9Dez76krdcRXHR8YhQu0kpLTxA/+OtuvLletSP5EoA77F7Xd7q7uxV3B+LiJ/6bdZxinkhgR44+80NK6EkAcmO9Xr83gv9+3oGRxRaMG5E+e6Hckel1BO980QmXJ/ojpK3OfkwuK4LFqO7RzsPxhiL4b81evLerHiGFnfzOmF+A7yxM3QBgZY0LVz+0D10u1TqGdhDIZ9u9rucwWG+JS0I8AEhyAxF/Z0Gm+TlJFkYAmBbr9SIixQcbuuHxi1gwNR9Cii+JctHZ1eTGnubo36zDkoztrV3IzTSjJEubYLLfH8THe5rw6pY62BW89R9kNgr4+1VjkJ2Zesmjkkxx/xtt+MurLQgzJnMOhVDyjkjCp3d43exZllxC4QFACnAFgyF3OPCGzZhRR4CTAMR8CHt7/QDqmj04ZV4x32fnQGWK99azFaUUZRm72nvQ1OdChtGAQqsFJMZ6zGFJwu7OPnxQ24C3d+xHi3MAUmylavHTsytw4vSYF9ASTkSU8eunG7F8LXsb5yEEQXGz3ef8pTcc5kv+KYDf2VNMqTlnpE4vPA/gODWuN29iHp78zUzYLKn3dsRFLxCSseCazzDgU15J0moyYlxxPsYW5aIiNwv5mRnQCUdOQ/KHI+jx+NDiGMD+bgeanQMQJfWa9cwaY8OzN05MuSDXH5Jxw+P78UUdezLkEHaD0ovsPtdOtS7IxV9qfeu5g3QVttybQcmdAGLehB03wop/3zaH19NPc/e8sB9PvH1AtevpCEGOxQyL0QCzQQ+zQY+IJCMsiQhFJLj8QfjD2pWuzs8y4PXbpqIoR/s8heE04BNxzcP71KjlDwzu7z8pe82/7EBHYnUV42LGA4AUVmbLXUhk8gIhqIr1WlUlFrxyxzwU5fIgIF31DYSx9Odr4PEn/nHRo7Fm6PDsjRMxqTK1qkU63BFc+rc6HOgOxnwtCnQTmV5h97s+UGFqXALiOQApzBMOthXbMp4RZVoBkOmxXKvfG8HnO/pw5sJSmI38a5OOLGYdLCY9Vtckd2dXa4YOj/9sPKaNSq2TLr6ghB89sAf1HbGfDKbAx3pZWNbmd25XYWpcguJ38hTnDARC7nDwv2okCDrcYWyqc+GsRaUw8J7paWn6mGzUNrlxoDM5V4OLcgz41y8nYmpVaj38g2EZ1zy8X4VlfxICob9r97quG4j4VasRzCUmHgCkCU84UJebYXyVQlgEoEzpdbqcQext8eD0Y4r5EcE0RAhw4pxCfF7jQG8/W6OmeJs1xoanfj4RE7zcCgAAE2NJREFUI4tSq+OfKFH84okGfLEn5oS//aD0FLvX9Qb42f60wAOANDIQCvXnhYv/LRtCpSCYpfQ6Bzr96BuIYOnsQjWnxyUJo17AqfOLsb7WgR71CstoRq8juOaMcvz50tGwWVLvlvenl5rx3mZHrJd5w2zEGc1uXs43naTebwN3RP3oF92RwNs2g+UAITgVCk8J1Da5UZpnwuTR2SrPkEsGFpMOZy0qRacjhL0tibtSPHuMDQ9eMxZnzCtIyRWrdzb04cG37LFcQgRwp93rvN4ZCCTXkg4Xs9T7jeCiNsKas5hCeBuAoqe4yUDwwq+nYtqYbBCdDoJOANHrYy72wiWX99d34bZ/1sVUI0Bt1aUZuP6sCiybnRfvqWhmr92Pi+7ZjWBYcV0EP2R6gd3vel/NeXHJg9+p09wIa+4UCvIRFOYFlOaZ8Nptk5Fr/WohgRACCAIEQQAEAUQgIOTL/9XpAEJ4kJBiepwhPPLfRryyqh0RUb1CPaxmjLbikhNKsGxuHlMDo2Tj9ov47l27Ye9TfNyvXyD0rFaPa62a8+KSS+r+hnBRq8gqHEMl6WOl9QIWT83BY9ePB8v99mCQQL4ZIAgCiKAb/G/825lwqCxDlmVAkkGpDCpTQJYhyxIgU7T3BfHUR514b5MDnsDw1AuwZeixbHYevn98Ucqd6z8cSoGfProfn+50Kb1EJyg91e5z7VJzXlzy4bdYDgBQmZ09WpZ0awGUKhl/6/ercMmJxarOiRwMEHQ6CHodBJ1ucAWB0xyVZVBRgiyJkCUJVJJB5ejf7EMRis92ufDuxj6s3zMAf0jdVYGSXCOOm5yDk2fmYv6ErLQ6lvrSp9348yvNSof3Uyovaff171BxSlyS4gEA9z9fbgesBsC8cWo0CHjllsmYUGHRYGZfIYRA0OtB9HroDHoeEKiEUgo5HIYUEUFFETTGBjuHEiWKvW1+bG3wYEeTBy29IbT2BOELHr11LyGD20yjSzNQXWLGmDIL5oy1pdxRvmg1dgZwwd21Svf9/TKhp3R4XOvUnheXnHgAwH1NeVbeMUTCShAwr6VWl2Zg+a1TYDYO39sY0emgM+ihMxp5MMBKliGGw5AjImRx+Mv7urwR9A5EEIpQeAISAiEJGUYBFrMOmWYBmSYd8rOMMBn4bQoAwhEZF/51N/baFRVhikCm5/Cyvtyh+G8W9y0jrLkXUpCXlYy96IRi/O7CKpVnFB1Bp4POZITOxPsVHIkciUAMRyBHIoMbylxSuPs/zXjhk25FYynote1e1+MqT4lLcvyVifsWdzhYm2XMyAMwn3VsbYsPkyqtGFU8/Eu0lFLIERFSKARQyo8kHoJSCikURsTnhxQKg0pHX37nEse63QO4+z8tCkeTl9q9zltVnRCXEngAwB3W2HBglc+YsQTASNaxG/a6cdb8AmSa4/f1kkUJUjAEKkuDyYNH6TufqgYf/CGIPj9/409STk8EVz20F/6gon3/XbLXfI4HnsQp0sAlDB4AcIfVCchZOssKCLgUAFNmXyAso77Dj7PmFcT9KB+VZEihMGRJAiEkbfIEqCxDCgYR8fkhR5K/fW+6ohS48ckG7GlVtO/vpUQ4qSPc3aX2vLjUkB53Q04RtxjwZOnNu0HIRWDMF2nrDSHLosf00YnRdY3KMqRwBFIkMniSIEUDAVkUIfoDiPgDkEW+zJ/sXvy0Gy98ouz5TQi52u5xrFJ5SlwKSc27IKcadyRYn220lACYwzp2034Pjp+ag8JsowYzU4hSyJEIpHAYIIOnCFIhT0CORBDx+SEGQ0zn9bnE1dARwI1P1kOUFG3bvG7n+/7cUfAAgDsqazj3U2IUzwPA1P5Pkim21ntw/oJC6HUJ9pD9MmFQDoUBCgg6AXHfr2BEKYUUDiPi8w0m9vH9/ZQRDMu46sF96OlX1G2xVdBJZwyEQorrBHPpgQcA3FF54IlkG82fA+RKAHqWsS6viDZHCKfMStymLLIoDp6HF6X/VR9MZFSSIAZDEP0HE/viPSNObX944QDW1Q0oGSpTCOfbPa49as+JSz08AOCi4g4He2yGDP+XLYSZ1LcHYDXrMKPapsXUVDOYJxCGFIkAspxQwQCVB7P5I/4AxGCQH+NLYc+t7MJTH3UoGkuBu9q9jn+pPCUuRfEAgIuaJxLYmGXImAOCcaxjN+x1Y1pVJiqToYQrpYPHCENfBQP0yw6Gw5kvIIuDNQ0igSDEQGCwWh9f5k9pG/a6ceuzjZCV/DMTbC7xOi/rBHgSCBeV5Nr05OKu2FpcZEBkB4AS1rHZmXosv3UyKgqSIAg4nC9PDwj6waZEgk4PIhBVcgcGm++IkCUZsiiCSiJ/1qeZTmcIF9y9G05lR/a9EHSz7O7eerXnxaUuHgBwzMqzcs8gMnkHCr4/1aUZePbGicjPMmgws/ggOt2XrYx1g7EAOdjKmPwvNjiYoEfp4P+jdLClriyzddnjUpPTE8EV9+9FfYei8/6glFzW7nP8W+VpcSmOBwCcIhXW3IcB8lMlY0eXmPHsjZNQkJ06QQDHKeX0RHDl3/dif7uyhz8Blrd5nd9TeVpcGkiMDCcu6ei92b8CUKtkbFNXED96YK/SpU6OSxkubwQ/ekD5w59SNBsM9CqVp8WlCR4AcIo0ozlIifAdAB4l4+s7/Lj0vj3oG+BBAJee3H4RVz20D/uUtfcFgAgVcHGTy6XovCDH8VMAnGKesN+RZTC3gZDzlYx3eUV8utOFYyfmINfKVF6A45Jac3cQP3pgD/a3B2K4Crmx3et8TbVJcWmHBwBcTNyR4M5sY0YpFJQKBoB+n4i3N/ZhXLkFVXFoIcxxw21NbT9+8tA+dCur8gcAIMCrdq/zVypOi0tDPADgYjY2HPjIZ8xYAGC0kvFhkeL9zQ6EwhTHTMhOtoq8HBe151d14dbnmhCMKD/5QUC3hTON5/p8Pr5/xsWEBwBczDoBOctseBdUOA9AvtLrbGv0oKkzgPkTsmE28vQULnW4/SJue64Jz3zcGWt9B7tO1p3Q3t/rVGlqXBrj71qcakZkZ1dTSbcGQGks18nPMuC2C6uwbHbi9g/guGitrHHhzpcOoDf2hFcnKF1i97l2qTEvjuMBAKeqEdbcKRTkM8SwEnDQkqm5+P3FVSjJTaB2whwXJYdHxL2vteDtDX1qXM4vEHpqq8e1Vo2LcRzAAwBOAyMs+XOpQFcAyIn1WlkWPW44pwIXLCqEQc+3BbjEJ0oUb3zRiwf+24Z+n6jGJf0Uwpnt3r5P1bgYxx3EAwBOE2WWnJmCoPsIoIVqXK80z4jLTyrF9xcXwWjggQCXeGRKsWKbCw++2YaWnqA6F6XwUULObvc6PlHnghz3FR4AcJqptOZNloGVUNA4aCgVBWZcd2Y5zpyXD72Of325+JNkivc2OfDou3a09obUvLQLAjnN7nZsVPOiHHcQv4NymirPyKsgOrwDYIaa1y3INmDZ7Dx8d1ERxpVb1Lw0x0Wl0xnGe5v78MrqHnQ4VH3wAxQHBIIzW73OOnUvzHFf4QEAp7mqnJwcSRSWU+AkLa4/q9qG8xcV4tRZecg085OtnHb8IRkfb3Pi9XW92Nrg1qZlM8VGA/TnHPD1dGtwdY77Hx4AcMNiNmDotubdC+DnWv0MvY5gWpUVx07MwjETszF9lJVvE3AxESWKXc1ebNjrxoa9btQ0eRERtWvfTCmeJT7LdXbYY6kRzHFR4XdHbliVW/MuIMDTAGxa/yyLScCssVmYVGHB+BEWVJdmoKLADIuJJxFy3xYMy2h3hFDfEcB+uw972vzYst8DX0galh8PghvsHueTw/HDOA7gAQAXB+W2gnFElv8Ngvnx+Pl5NgNKcg0oyjahINuAohwDCrIMKM41Ic+mR3GOEfk2PT92mCIkmcLpEdE7EEHPQAh9AxH09EfQ546g2xWCwyOi0xlSo1CPUrtlWf5hh79/e7wmwKUnHgBw8aIfYc37LQVuB2CI92QOJ9+mR36WEUW5RhTY9CjPN6Gy0IwRRWaMKDQj38Y7GCYCt19EW08ILb1BtPWG0OEYfJj3uMPo7Q/D6REhyVps1sdMpgQPGDxZtzWjWaVzgxwXPR4AcHFVnpkzgxDhMQDHxHsurDJNOoyvsGDaaCtmVtswY7QVhdkJGcukDKcngh0HfKhp9GB7oxf1HX4MqFNsZ7jVyoRe0+FxrYv3RLj0xQMALhEI5dbcqwjI3QCSugFAWb4Jx07Iwokz8nDshCze1ChG4YiMjfvcWFXjwsZ9bvUK7MQLhQ8C/VOxx/X3rQDv5sfFFQ8AuIRRmZ2dK4u634LgZwDM8Z5PrMxGAYsmZePEGXk4aUYurBn8iGI0fCEJn+1wYVWNC2tqB4YrCU9rIgGeFmThjhZ/X2e8J8NxAA8AuARUlpFbKejI7QAuBZASnYAyjAJOn5uP7y8uxpSqzHhPJyHVtfqwfE0P3t3oSJWHPgBIFFhOifDHDk/fvnhPhuMOxQMALmF9WUXwZgBXAUiZcn+TKi343uJinD2/IO23CEIRivc29+E/q7uxq9kX7+moKQyK56HT3WN399bHezIcdzg8AOAS3pi8vKxgBBeC4gYAk+M9H7VYM3Q499gC/OjUMhTnpMRCR9Scngje+KIXL3zShZ7+lNoK7wAlz1OZ/qM94LTHezIcdyQ8AOCSCSm3FiwhVL4EBOdDhXbDicBkIDh7fiEuO7kUo0uSPvXhiJq7g3huZSfe2tCHYFi7inrDzA/gLUroS+0e1wcAUmb/gkttPADgktIYwBSy5Z9GZXomCE4HUBrvOcVKIATHT83B5SeXYO64rHhPR1VbGzx4ZkUnPtvZD1mTAvrDzkmBFYTSd0IW/du9vb3eeE+I41jxAIBLBaTSUjCLEnmJTOhiArIQQH68JxWLKVWZuOLkUpwyKw86ITl/TSWZ4uPtLjyzoiMV9vc9AL4gwDqJ0E86PK4N4G/6XJJLzjsLxx0ZqcgqHENlaTqAaQSYAqAaQBWApHq1Ls834bKTSnH+wsKk6WHgD8l4Y10vnlvZiXa12+RqL0iBA4SiCSC1gLwTwC67z1UH/sDnUgwPALi0UpGVlQdJVw6Qcor/b+9efqOqwzCOP++Zlul0mE5Lp9AOULWMN9xwCRGLwYUxBgkxMTEQl6JxYSJL459gWLkhuPISFxoT4jVGXUG0khhFJEK8FCoUprZAL9PptIVzXhcaFwYTI3V+0+H7+QMmz1lM8iTnvO9raxRprXnSK1nRpF53FWXqU4PtIchlWvTEgz3at3O1blvdUNH+8uv4vN4+Nq4jX0yoUmu47XzXJI3LddHNxyJZ2aWyTOVEXk7FqXLKbHSkOjEWOihQLxQA4Ab68/kuxam+WNZrnhTN7A6Zl9ytJKkkaXWIXJGZ7r87pz3be/TI5i5l28IuF6rOx/r8xKQ+PD6h4z/OKODr/StyDcs07NJwZDrnsY/JNNqq1t/OVcfHJTXFxwfAUqEAAP/B+vZC0aPkATcNmmu7pG2q81GjthWRtt3VocF78xrc2KE7i/VZlfDzpTkNnZ7R0Jlpff3TTIiv+WO5vpHpK5Mfj2MNXapNnq93CGC5owAAS+D2zs7O69fsMTN73KVdknL1ztCTb9Xgxry2lHIa6M1oQ19Gndmbu1g4Vb2us+WahsdqOvFLRUNnpsPM7buqMn3qbu8rWvz4YqVypf4hgOZCAQCWWElK11au2hNJz7n0sAL+z7pWtmpDX0bre9LqzrUq25ZSezpSNpNSe/qP1wdzC7GqtVhzC4mq87GuVK7pwsSChss1Tc4GX9JzzNwPezX73qhGa6HDAM2EAgD8j9Z19JQUJ8/KfL+W+WhiHc1I/kYkO3x+9urp0GGAZkUBAOqgJKVr2e69Zv6SpHtC52lQY5JejVLxK+enpydDhwGaHQUAqK+omOvanXJ70aUdocM0iJMyHWqpdLw5opH50GGAWwUFAAikv72wNUnFB+T2lKSw83wB/LlV7+VLlcmPxIgeUHcUACCw/nx+IIlTByQ9oyY6e/wPFmX+jhIdHK1OngodBriVUQCABlHM5QqRWvbL7QVJxdB5ltiMpNc91kHO5AKNgQIANJh1Wpex3Nw+l56Xa2voPDfplMsPLWZa3uJiHtBYKABAA1vbsWq7JXpa0pOSOkPn+Zdm3HUksuS1C7NTx0KHAXBjFABgGShJ6fmV3btNvtelRyXlQ2f6m4qkz0x612fbP2BpD9D4KADAMrNVah3Ldu9U5LtMekiuzar/FEEs2fcmPyrXJ+nq1aO/SMvu9i9wK6MAAMtcoVDItdWSHR7Zlsh9k0ubJA1o6UpBItk5yb8z6WQS+betkX85MjU1tUS/DyAACgDQhO6TVkx39PRbHA94pPUuWxPJCy4vmFub3NpknpEkd5s385qbLZj7Zckuu/m4El3wKDrbWbk88oO0GPqZAAAAAAAAAAAAAAAAAAAAAAAAAAAAAAAAAAAAAAAAAAAAAAAAAAAAAAAAAAAAAAAAAAAAAAAAAAAAAAAAAAAAAAAAAAAAAAAAAAAAAAAAAAAAAAAAAAAAAAAAAAAAAAAAAAAAAAAAAAAAAAAAAAAAAAAAAAAAAAAAAAAAAAAAAAAAAAAAAAAAAAAAAAAAAAAAGsHvTE2oWpbNIekAAAAASUVORK5CYII=;" vertex="1" parent="7">
                    <mxGeometry x="255" y="60" width="250" height="250" as="geometry"/>
                </mxCell>
                <mxCell id="10" value="Cookies:" style="rounded=1;whiteSpace=wrap;html=1;" vertex="1" parent="7">
                    <mxGeometry x="325" y="320" width="110" height="40" as="geometry"/>
                </mxCell>
            </root>
        </mxGraphModel>
    </diagram>
</mxfile>